<svg width="44" height="47" viewBox="0 0 44 47" fill="none" xmlns="http://www.w3.org/2000/svg">
<path d="M19.7343 21.8068C11.1531 19.2388 5.01591 15.6183 2.38008 12.5379C-0.187854 23.0714 -3.80672 39.5703 11.872 46.6036C28.9041 49.3638 35.4697 33.7474 39.4471 23.6361C35.4839 24.7412 28.3138 24.3765 19.7343 21.8085L19.7343 21.8068Z" fill="#48291A"/>
<path d="M28.9624 4.83075C29.4998 2.74781 28.6203 0.710242 26.916 0.20029C25.2168 -0.308004 23.3149 0.886654 22.5491 2.89499C12.3952 0.500939 3.53334 1.64605 1.73281 7.32562C0.686119 10.6252 7.99164 16.5528 20.4246 20.2748C32.8575 23.9968 42.3293 23.0893 43.3742 19.7914C45.1609 14.1573 38.6174 8.41115 28.9624 4.83075Z" fill="#48291A"/>
</svg>
