<svg width="100" height="63" viewBox="0 0 100 63" fill="none" xmlns="http://www.w3.org/2000/svg">
<path d="M79.884 25.8322C79.5822 24.3528 80.0102 22.9499 81.0887 21.8816C81.5186 21.4548 82.0445 21.0818 82.6772 20.7587C82.9292 17.4266 84.868 16.5113 86.1257 16.2716C87.6293 15.9848 89.076 16.4903 90.0953 17.6569C90.4651 18.0811 90.7991 18.6063 91.1014 19.245C95.0455 19.6536 96.0146 22.1338 96.2514 23.2943C96.4762 24.3947 96.525 26.8664 93.0936 28.4606C93.082 29.0749 93.0102 29.6172 92.8778 30.0957C92.4552 31.6253 91.3351 32.669 89.8043 32.9611C88.2945 33.2495 86.8586 32.7708 85.7612 31.6141C85.3062 31.1339 84.9016 30.5326 84.5406 29.797C81.0066 29.2991 80.1104 26.9387 79.8848 25.8317L79.884 25.8322Z" fill="#48291A"/>
<path d="M88.1816 19.2739C88.6063 19.761 88.9948 20.5679 89.3464 21.697C91.9839 21.5532 93.4587 22.2435 93.7695 23.7676C94.0398 25.091 92.9322 26.0868 90.4466 26.7551C90.6081 27.9199 90.6044 28.8102 90.4348 29.4253C90.2653 30.0404 89.8881 30.4037 89.3046 30.5156C88.6628 30.6382 88.0957 30.4395 87.603 29.9206C87.111 29.4013 86.6697 28.5592 86.2801 27.3926C83.9631 27.4753 82.658 26.7975 82.365 25.3591C82.2299 24.6975 82.4048 24.1262 82.8907 23.645C83.3754 23.1635 84.1538 22.7616 85.2243 22.4383C85.0201 20.1757 85.4867 18.9359 86.6247 18.7194C87.2378 18.6029 87.756 18.7871 88.182 19.2746L88.1816 19.2739Z" fill="#FFEFE1"/>
<path d="M49.4888 38.7867C43.8302 35.0987 40.1638 31.1708 38.9146 28.3805C34.8101 35.4512 28.6729 46.6121 38.5122 55.0439C50.2421 60.6737 58.3223 50.7797 63.3561 44.3151C60.2538 44.2689 55.1458 42.4755 49.4885 38.7879L49.4888 38.7867Z" fill="#48291A"/>
<path d="M59.7844 28.4776C60.6174 27.0857 60.416 25.4244 59.2921 24.692C58.1716 23.9619 56.5411 24.4202 55.5589 25.7094C48.7257 21.8116 42.072 20.7493 39.558 24.473C38.0971 26.6362 42.1163 32.4818 50.3145 37.8262C58.5128 43.1706 65.5569 44.5349 67.0162 42.3726C69.5104 38.6788 66.0036 33.1269 59.7844 28.4776Z" fill="#48291A"/>
<path d="M16.1947 17.784C12.0646 20.476 8.33596 21.7837 6.07192 21.8171C9.74548 26.5361 15.6411 33.7594 24.2041 29.6514C31.3863 23.499 26.9092 15.3516 23.9142 10.1905C23.002 12.2272 20.3248 15.0932 16.1954 17.7846L16.1947 17.784Z" fill="#48291A"/>
<path d="M12.0623 8.05468C11.3462 7.10917 10.1522 6.77067 9.33196 7.30537C8.51425 7.83851 8.36506 9.04592 8.96847 10.0609C4.36152 13.4696 1.74585 17.5645 3.58048 20.2825C4.6461 21.8619 9.78732 20.8655 15.7717 16.9655C21.7561 13.0656 24.6892 8.79843 23.6238 7.22038C21.804 4.52386 17.0093 5.26503 12.0623 8.05468Z" fill="#48291A"/>
</svg>
