<svg width="46" height="49" viewBox="0 0 46 49" fill="none" xmlns="http://www.w3.org/2000/svg">
<path d="M0.378896 39.7143C0.149872 38.4635 0.278277 37.1359 0.824001 35.8801C2.50949 31.987 5.52188 28.4919 10.0308 25.1955C12.4876 23.4005 14.8871 22.0145 17.2621 21.0266C21.2897 9.47781 28.7641 2.25243 37.8412 1.16541C41.6032 0.716195 44.9953 3.37523 45.475 7.05007C45.9277 10.7499 43.2461 14.1158 39.4842 14.565C36.7366 14.8932 34.3758 17.2922 32.5826 20.3111C36.474 21.7169 39.7438 24.3525 41.5939 27.8096C43.5278 31.4279 43.7094 35.9234 42.0797 39.838C40.5721 43.4644 37.6563 46.1945 34.0807 47.3257C26.2836 49.7916 18.585 44.2999 16.2394 37.606C14.8633 38.8394 13.943 40.0109 13.4451 41.159C11.9597 44.5897 7.92765 46.1878 4.44343 44.7284C2.23338 43.8045 0.775031 41.8748 0.378958 39.7123L0.378896 39.7143Z" fill="#48291A"/>
<path d="M38.1246 5.68983C36.5169 5.88475 34.9497 6.39633 33.4976 7.09582C32.8627 7.40062 32.2525 7.75574 31.6713 8.14942C30.9273 8.6534 30.2065 9.18782 29.5343 9.78121C28.3041 10.8682 27.2197 12.1261 26.2446 13.4387C25.3473 14.6485 24.5605 15.937 23.8671 17.2698C23.0901 18.7629 22.4022 20.3063 21.8183 21.8804C21.2034 23.541 20.6759 25.2438 20.3209 26.9774C20.0969 28.0721 19.9148 29.1838 19.8414 30.3007C19.768 31.4176 19.8341 32.5267 19.9768 33.636C20.1033 34.616 20.3581 35.5599 20.7206 36.4793C21.0288 37.2622 21.3949 38.0031 21.8898 38.6882C22.433 39.4403 23.0016 40.1534 23.7107 40.7615C24.4198 41.3696 25.1309 41.9142 25.9572 42.3234C26.7835 42.7325 27.6098 43.0762 28.5127 43.2297C29.0525 43.3209 29.5861 43.4139 30.1348 43.4142C30.6834 43.4144 31.2318 43.359 31.7693 43.2657C32.1242 43.2046 32.4701 43.1076 32.8068 42.9846C33.2803 42.81 33.7477 42.6352 34.1833 42.3821C34.6189 42.129 35.0151 41.843 35.394 41.5327C35.6342 41.3353 35.8608 41.1197 36.0678 40.8877C36.6155 40.2768 37.1116 39.6366 37.4736 38.9012C37.8355 38.1657 38.1577 37.4113 38.3304 36.6028C38.503 35.7944 38.6284 34.9489 38.6022 34.1128C38.576 33.2767 38.4789 32.4484 38.2436 31.6558C38.0082 30.8632 37.657 30.0374 37.1934 29.3175C36.7029 28.559 36.1366 27.8341 35.4681 27.2192C34.0997 25.9589 32.4908 25.0327 30.7164 24.433C29.8182 24.1289 28.8918 23.9549 27.952 23.8183C27.1971 23.7068 26.4319 23.6645 25.6686 23.6918C23.7199 23.7616 21.8015 24.1498 19.9806 24.8365C18.9763 25.2158 17.9932 25.6254 17.0417 26.1213C16.2399 26.5383 15.4609 26.9996 14.7033 27.4893C13.0889 28.5372 11.5198 29.6876 10.0858 30.967C9.44662 31.5376 8.83464 32.1407 8.26595 32.7787C7.58018 33.5483 6.92156 34.3524 6.35598 35.2128C5.7904 36.0732 5.35764 36.9435 4.95771 37.8603C4.85366 38.1549 4.83022 38.4518 4.88934 38.7532C4.89412 39.0509 4.97609 39.3311 5.13326 39.5937C5.26813 39.8595 5.45708 40.0734 5.69998 40.2393C5.91342 40.4439 6.16721 40.5843 6.46128 40.6624C7.03959 40.8103 7.69543 40.8018 8.22369 40.4879L8.6962 40.1505C8.98711 39.8793 9.19292 39.556 9.31369 39.1786C9.35931 39.0747 9.407 38.969 9.45464 38.8652L9.2081 39.3937C9.77248 38.186 10.5156 37.069 11.3728 36.0425L11.0018 36.486C12.1292 35.142 13.4412 33.9583 14.8306 32.88C15.2317 32.5683 15.6406 32.2648 16.0553 31.9694L15.5828 32.3068C17.0292 31.2758 18.5492 30.3402 20.1643 29.5879C20.6208 29.3751 21.0869 29.1785 21.5585 28.9979L21.0073 29.2079C22.3771 28.6885 23.8027 28.3216 25.2638 28.17L24.6567 28.2316C25.7676 28.1213 26.8822 28.148 27.9841 28.3232L27.382 28.2262C28.4296 28.3978 29.451 28.6956 30.4177 29.1287L29.8807 28.8868C30.6862 29.2516 31.4465 29.7065 32.1352 30.2584L31.6847 29.894C32.2768 30.3717 32.8064 30.917 33.2572 31.5275L32.9148 31.063C33.2861 31.5719 33.6018 32.1169 33.8356 32.7012L33.6227 32.1592C33.858 32.7574 34.0058 33.3827 34.0745 34.0217L34.0126 33.4246C34.0853 34.1271 34.0611 34.8348 33.9464 35.5318L34.0457 34.9395C33.9296 35.6186 33.7293 36.2794 33.4394 36.9058L33.6859 36.3774C33.4307 36.9254 33.11 37.4398 32.7221 37.9067L33.0931 37.4632C32.7684 37.8465 32.4025 38.1929 31.9938 38.4885L32.4664 38.1511C32.0702 38.4332 31.6434 38.6647 31.1881 38.8379L31.7393 38.6278C31.2801 38.7989 30.8005 38.9118 30.3127 38.965L30.9198 38.9034C30.3734 38.9588 29.8254 38.9388 29.2855 38.8515L29.8876 38.9485C29.2736 38.8452 28.6804 38.6592 28.1134 38.4064L28.6505 38.6484C27.9802 38.345 27.3572 37.9517 26.7867 37.4905L27.2371 37.8549C26.6255 37.3549 26.0787 36.7813 25.6104 36.1485L25.9529 36.6129C25.4983 35.9924 25.12 35.3206 24.8379 34.606L25.0508 35.1479C24.6943 34.2307 24.4848 33.2603 24.3802 32.285L24.4422 32.8821C24.2923 31.4233 24.3889 29.9519 24.6319 28.5066L24.5327 29.099C24.9386 26.7061 25.6921 24.3552 26.606 22.1042C26.8333 21.5434 27.0746 20.9889 27.3299 20.4409L27.0833 20.9693C27.89 19.241 28.836 17.5703 29.9617 16.022C30.2738 15.5926 30.6016 15.1717 30.9413 14.763L30.5703 15.2065C31.5805 13.998 32.7206 12.8925 34.0082 11.9719L33.5356 12.3093C34.5157 11.6098 35.5769 11.0259 36.706 10.5927L36.1548 10.8027C37.1368 10.4288 38.1614 10.1751 39.2062 10.049C39.5046 9.98826 39.7667 9.86302 39.9926 9.67122C40.2455 9.51991 40.4475 9.31749 40.5988 9.06002C40.7741 8.80723 40.8715 8.53231 40.895 8.23537C40.9728 7.94004 40.968 7.64227 40.8827 7.34016C40.7224 6.79379 40.3962 6.26041 39.8788 5.97143L39.3417 5.72949C38.942 5.61062 38.537 5.59874 38.1306 5.69397L38.1246 5.68983Z" fill="#FFEFE1"/>
</svg>
