<svg width="56" height="61" viewBox="0 0 56 61" fill="none" xmlns="http://www.w3.org/2000/svg">
<path d="M14.4367 43L5.6988 58.1345" stroke="#48291A" stroke-width="5" stroke-linecap="round"/>
<path d="M17.6349 54.936L2.5004 46.1981" stroke="#48291A" stroke-width="5" stroke-linecap="round"/>
<path d="M37.5533 33.949C35.4727 33.1899 33.9973 31.6659 32.952 30.0557C31.0884 30.6094 28.962 30.8148 26.8854 30.0557C25.2308 29.4512 23.8092 28.2969 22.7719 26.7122C21.3045 24.384 21.0337 21.7937 21.9595 19.3423C22.3378 18.3406 22.8993 17.3858 23.6639 16.4546C22.4474 14.2105 22.302 11.5909 23.2577 9.06119C24.53 5.69611 28.0421 2.57755 33.9455 3.8238C34.3696 3.32883 34.8216 2.86124 35.3015 2.42495C37.9017 0.0576617 41.2706 -0.615353 44.5398 0.578074C47.4567 1.64238 49.384 4.10162 49.828 7.32583C49.9276 8.04971 49.9535 8.79902 49.9096 9.57964C51.6518 10.4307 52.9758 11.4833 53.9335 12.7706C55.6139 15.0322 55.9544 17.8123 54.8972 20.6081C53.8698 23.3236 51.825 25.2879 49.1371 26.137C49.0913 26.1507 49.0435 26.1644 48.9978 26.18C48.9241 27.1915 48.723 28.1228 48.3945 28.9895C47.4686 31.4389 45.5433 33.2271 42.9729 34.0253C41.1611 34.6005 39.2736 34.577 37.5473 33.9471L37.5533 33.949Z" fill="#48291A"/>
<path d="M31.3791 16.7185C29.9197 15.9262 28.9182 15.0477 28.3707 14.0812C27.8231 13.1167 27.7714 12.0465 28.2154 10.8727C29.0496 8.66777 31.0964 8.16106 34.3617 9.35253C34.9152 9.55404 35.3473 9.72816 35.6579 9.8749L36.1656 10.1097C36.8485 8.56604 37.7584 7.27674 38.8953 6.24179C40.0322 5.20683 41.3004 4.94467 42.7001 5.45334C43.7793 5.84659 44.4084 6.70546 44.5896 8.0241C44.7688 9.3447 44.502 10.9979 43.7853 12.9856C44.9361 13.2752 45.7882 13.5217 46.3417 13.7232C47.9445 14.3082 49.0535 15.0145 49.6707 15.842C50.286 16.6696 50.3776 17.6556 49.9455 18.8021C49.4796 20.0347 48.6732 20.8309 47.5244 21.1929C46.3756 21.5568 44.8743 21.5137 43.0207 21.0657C43.8111 23.7989 43.9525 25.8375 43.4448 27.1835C43.0884 28.1285 42.4015 28.7584 41.388 29.0734C40.6713 29.3004 40.0083 29.3023 39.395 29.0793C37.9655 28.5589 36.7748 26.7061 35.8231 23.523L35.6519 22.9224L35.1243 23.2667C32.287 25.0666 30.1546 25.7064 28.7271 25.186C28.1437 24.9727 27.642 24.5462 27.2219 23.9026C26.6624 23.0143 26.5608 22.0968 26.9192 21.1518C27.4269 19.8058 28.8884 18.3521 31.3055 16.7889L31.3811 16.7185H31.3791Z" fill="#FFEFE1"/>
</svg>
