<svg width="18" height="19" viewBox="0 0 18 19" fill="none" xmlns="http://www.w3.org/2000/svg">
<path d="M0.917912 4.1709C-0.123061 8.62529 -1.59313 15.6127 4.90819 18.6236C11.9565 19.8264 14.6404 13.2271 16.265 8.95358" fill="#FFEFE2"/>
<path d="M5.84974 7.24275C2.1577 5.69257 0.0996235 3.73659 0.456963 2.56931C1.20716 0.117364 5.00008 -0.327793 9.31657 0.777228C9.69949 0.182492 10.3396 -0.130264 10.925 0.0515203C11.5167 0.235452 11.8727 0.868836 11.8478 1.58667C15.8396 3.13112 18.5428 5.57591 17.8146 7.95772C17.3855 9.35975 13.4455 9.72618 8.26302 8.11732C7.39703 7.84822 6.5907 7.55407 5.84974 7.24275Z" fill="#FFEFE2"/>
</svg>
