<svg width="16" height="14" viewBox="0 0 16 14" fill="none" xmlns="http://www.w3.org/2000/svg">
<path d="M6.46264e-07 7.03274C6.31048e-07 7.38083 0.13669 7.71467 0.379998 7.96082C0.623306 8.20696 0.953301 8.34524 1.29739 8.34524L11.5727 8.34524L8.16491 11.7927C7.93574 12.0415 7.81097 12.3706 7.8169 12.7107C7.82283 13.0507 7.95899 13.3751 8.1967 13.6156C8.4344 13.856 8.75509 13.9938 9.0912 13.9998C9.42732 14.0058 9.75261 13.8796 9.99855 13.6477L15.6206 7.96024C15.8635 7.71414 16 7.38055 16 7.03274C16 6.68493 15.8635 6.35133 15.6206 6.10524L9.99855 0.417739C9.87978 0.288787 9.73654 0.185359 9.5774 0.113623C9.41825 0.0418866 9.24646 0.00331334 9.07225 0.00020396C8.89805 -0.00290542 8.72502 0.0295125 8.56347 0.0955242C8.40192 0.161536 8.25517 0.259789 8.13197 0.384422C8.00878 0.509055 7.91165 0.657514 7.8464 0.820943C7.78115 0.984373 7.74911 1.15942 7.75218 1.33565C7.75525 1.51188 7.79338 1.68568 7.86429 1.84668C7.9352 2.00768 8.03744 2.15258 8.16491 2.27274L11.5727 5.72024L1.29739 5.72024C0.581232 5.72024 6.77932e-07 6.30824 6.46264e-07 7.03274Z" fill="#FFEFE2"/>
</svg>
