<svg width="17" height="18" viewBox="0 0 17 18" fill="none" xmlns="http://www.w3.org/2000/svg">
<path d="M0.843984 3.83447C-0.11315 7.93011 -1.46482 14.3548 4.51289 17.1232C10.9935 18.2291 13.4613 12.1613 14.9551 8.23196" fill="#48291A"/>
<path d="M5.37862 6.65942C1.98394 5.23409 0.0916147 3.43565 0.420175 2.36238C1.10995 0.107911 4.59739 -0.301393 8.56624 0.714631C8.91832 0.167794 9.50685 -0.119773 10.0451 0.0473709C10.5892 0.216489 10.9165 0.79886 10.8936 1.45888C14.5639 2.87895 17.0494 5.12683 16.3798 7.31681C15.9853 8.60592 12.3626 8.94285 7.59754 7.46356C6.80129 7.21613 6.05991 6.94567 5.37862 6.65942Z" fill="#48291A"/>
</svg>
