<svg width="19" height="11" viewBox="0 0 19 11" fill="none" xmlns="http://www.w3.org/2000/svg">
<path d="M10.6246 10.5359L18.5347 2.6918C18.6822 2.54552 18.7993 2.37187 18.8791 2.18075C18.9589 1.98963 19 1.78479 19 1.57793C19 1.16014 18.8326 0.759474 18.5347 0.464057C18.3872 0.317782 18.2121 0.201749 18.0194 0.122586C17.8267 0.0434221 17.6201 0.00267805 17.4115 0.00267804C16.9902 0.00267803 16.5862 0.168641 16.2883 0.464057L9.50135 7.21002L2.71444 0.464056C2.56737 0.317012 2.3924 0.200301 2.19961 0.120653C2.00683 0.0410061 1.80005 -7.51834e-07 1.5912 -7.60963e-07C1.38236 -7.70092e-07 1.17558 0.041006 0.98279 0.120653C0.790005 0.200301 0.615033 0.317012 0.467963 0.464056C0.319681 0.609899 0.201985 0.783414 0.121667 0.97459C0.0413497 1.16577 -6.76715e-07 1.37082 -6.85768e-07 1.57793C-6.9482e-07 1.78503 0.0413496 1.99008 0.121667 2.18126C0.201985 2.37244 0.319681 2.54595 0.467962 2.69179L8.37811 10.5359C8.52518 10.683 8.70015 10.7997 8.89294 10.8793C9.08572 10.959 9.2925 11 9.50135 11C9.7102 11 9.91698 10.959 10.1098 10.8793C10.3025 10.7997 10.4775 10.683 10.6246 10.5359Z" fill="#AAAAAA"/>
</svg>
