<svg width="198" height="95" viewBox="0 0 198 95" fill="none" xmlns="http://www.w3.org/2000/svg">
<path d="M106.101 17.476C106.101 17.476 92.7413 -0.537761 82.4378 9.02761C73.2011 17.604 89.8656 35.2827 89.8656 35.2827" stroke="#47291A" stroke-width="3" stroke-linecap="round" stroke-linejoin="round"/>
<path d="M87.1679 13.6562C87.1679 13.6562 96.667 17.1898 96.4187 25.2431" stroke="#47291A" stroke-width="3" stroke-linecap="round" stroke-linejoin="round"/>
<path d="M99.2408 10.496C99.032 6.799 100.076 3.03933 104.631 1.75069C111.071 -0.0692139 115.759 8.58076 117.903 13.6563" stroke="#47291A" stroke-width="3" stroke-linecap="round" stroke-linejoin="round"/>
<path d="M124.219 58.0777C121.761 58.0777 119.768 56.1542 119.768 53.7814C119.768 51.4085 121.761 49.485 124.219 49.485C126.677 49.485 128.669 51.4085 128.669 53.7814C128.669 56.1542 126.677 58.0777 124.219 58.0777Z" fill="#48291A"/>
<path d="M126.779 55.9805C126.37 55.9805 126.039 55.6608 126.039 55.2664C126.039 54.8721 126.37 54.5524 126.779 54.5524C127.187 54.5524 127.518 54.8721 127.518 55.2664C127.518 55.6608 127.187 55.9805 126.779 55.9805Z" fill="white"/>
<path d="M102.277 13.1796C116.551 10.7331 128.043 15.6997 136.303 25.0743C144.58 34.4708 143.573 46.1312 141.448 50.7763C140.384 53.0975 141.363 54.6913 142.608 55.7021C144.086 56.9035 144.298 59.1566 143.121 60.6359C138.648 66.2591 129.304 72.7486 115.829 70.5364C101.958 68.0518 95.9162 63.5184 95.9162 63.5184" stroke="#47291A" stroke-width="3" stroke-linecap="round" stroke-linejoin="round"/>
<path d="M133.244 38.7945C133.284 39.8488 132.431 40.737 131.336 40.7751C131.311 40.7751 131.288 40.7751 131.263 40.7751C130.202 40.7751 129.324 39.9632 129.285 38.9334C129.211 37.0045 128.582 30.2589 123.57 24.4559C119.218 19.4158 112.905 16.6042 104.783 16.0702C104.106 15.2829 103.186 14.2776 102.091 13.2151L102.277 13.1769C104.306 12.8282 106.276 12.632 108.19 12.5748C127.095 15.2393 132.903 29.823 133.244 38.7917V38.7945Z" fill="#48291A"/>
<path d="M139.628 37.7756C139.602 37.7756 139.58 37.7756 139.554 37.7756C138.493 37.7756 137.615 36.9637 137.576 35.9339C137.449 32.5801 135.504 27.3602 130.43 22.756C126.615 19.296 119.774 15.1195 108.836 14.8743C107.741 14.8497 106.877 13.9752 106.903 12.9181C106.903 12.8119 106.92 12.7084 106.939 12.6076C118.877 12.0028 128.627 16.8358 135.883 25.0717C138.781 28.3601 140.539 31.929 141.513 35.3754C141.521 35.5143 141.53 35.6533 141.535 35.7922C141.575 36.8466 140.723 37.7347 139.628 37.7729V37.7756Z" fill="#48291A"/>
<path d="M68.6041 77.6471C68.6041 77.6471 60.4002 94.9989 36.3137 84.8477C36.3137 84.8477 26.9557 91.3291 21.0998 88.0326C12.1848 83.0115 21.9944 71.599 35.6787 72.212C35.6787 72.212 36.5141 59.8568 48.9905 52.3429C62.0794 44.4585 75.5577 52.2884 75.5577 52.2884C75.5577 52.2884 70.9718 47.9675 74.2144 36.1981C75.6903 30.8447 78.408 26.7036 81.5885 23.5133" stroke="#47291A" stroke-width="3" stroke-linecap="round" stroke-linejoin="round"/>
<path d="M128.353 70.0923C128.353 70.0923 139.873 71.0267 137.37 77.9195C135.86 82.0769 128.308 81.5375 123.158 79.9165C123.158 79.9165 106.714 92.9827 88.8158 78.4044" stroke="#47291A" stroke-width="3" stroke-linecap="round" stroke-linejoin="round"/>
<path d="M96.2068 83.0142C96.2068 83.0142 82.7736 93.198 59.387 86.1636" stroke="#47291A" stroke-width="3" stroke-linecap="round" stroke-linejoin="round"/>
<path d="M61.577 48.8257C61.577 48.8257 73.3282 18.326 43.4564 7.34665C13.4575 -3.68172 -10.406 31.0162 7.88392 47.8421C15.9382 55.2525 26.9979 51.6182 26.9979 51.6182" stroke="#47291A" stroke-width="3" stroke-linecap="round" stroke-linejoin="round"/>
<path d="M28.7027 72.9584C28.7027 72.9584 14.7361 64.8697 28.7027 49.5258C39.7935 37.3396 27.8673 31.8472 23.9079 35.1819C20.4029 38.1324 21.5966 41.8785 23.6286 42.0746" stroke="#47291A" stroke-width="3" stroke-linecap="round" stroke-linejoin="round"/>
<path d="M17.6878 82.5702C14.8827 83.442 11.8659 83.8888 10.0879 82.6301C3.52375 77.9741 10.8358 67.1092 23.7158 67.5424" stroke="#47291A" stroke-width="3" stroke-linecap="round" stroke-linejoin="round"/>
<path d="M7.2912 22.982C8.30151 21.6553 17.6624 10.033 32.9384 13.2532C45.1354 15.8223 50.0205 23.5569 51.9734 29.5942C53.6356 34.7324 53.8698 40.9113 52.6337 46.9895C52.3346 48.4579 51.9564 49.8773 51.5162 51.2205C50.8219 51.5528 50.1277 51.9261 49.4335 52.3429C46.3489 54.2009 42.6915 57.1733 40.8656 59.3637C41.557 57.9797 42.4855 55.6966 42.937 54.6205C44.5851 50.6892 49.8511 41.3145 46.586 31.2179C44.396 24.445 39.4009 20.1922 31.7361 18.5794C19.587 16.0212 12.1254 25.829 11.8207 26.2404C11.767 26.314 11.7162 26.3766 11.6541 26.4447C11.3973 26.7363 4.18973 33.1713 7.26016 43.7692C7.56777 44.8317 7.86972 46.5644 9.30898 49.0219C6.04947 45.7172 2.55855 39.8815 2.08162 35.784C2.83511 28.4853 6.60543 23.7912 7.29403 22.9875L7.2912 22.982Z" fill="#48291A"/>
<path d="M37.2507 66.0738C38.896 61.8973 42.2374 56.4103 48.9906 52.3428C62.0795 44.4584 75.5352 50.9316 76.331 51.5146C77.4119 52.3019 75.9529 54.9065 74.4797 54.3289C74.4459 54.3153 71.1807 52.618 66.5384 51.738C60.4568 50.5856 55.202 51.4247 50.2577 54.4052C47.1026 56.3041 44.2777 58.2357 42.2374 61.0418C48.3161 56.3177 55.2415 55.1925 60.8067 55.3069C69.7161 55.4895 76.9011 58.7778 77.203 58.9168C78.188 59.3745 78.6028 60.5133 78.1315 61.4668C77.6602 62.4176 76.4778 62.8208 75.49 62.3659C75.4223 62.3359 68.6775 59.2655 60.6035 59.1293C50.1025 58.9495 42.3135 63.6436 37.4511 73.0782C37.0278 73.3615 35.6421 73.3152 35.5236 73.2989C35.5236 73.2989 35.8594 69.6155 37.2535 66.0765L37.2507 66.0738Z" fill="#48291A"/>
<path d="M43.6173 7.37939C68.2768 16.4435 64.1227 40.6797 61.9214 48.8611C60.8829 48.8611 56.1841 49.5313 55.0891 49.6703C56.9263 46.9676 58.1511 39.1132 57.7052 32.3376C56.9461 20.8216 50.3226 13.6564 41.8761 10.695C34.8378 8.22668 26.0724 6.2297 15.4472 11.9673C13.4323 13.0543 9.5519 16.4026 9.5519 16.4026C14.1209 7.17234 29.4053 2.15399 43.6202 7.37939H43.6173Z" fill="#48291A"/>
<path d="M135.462 72.3672C137.559 71.0949 139.904 70.0624 142.478 69.4875C152.183 67.3135 177.449 66.2237 185.032 78.5298C185.032 78.5298 178.457 73.0619 171.083 76.5328C166.172 78.8458 164.123 82.2486 163.274 84.5453C162.732 86.0056 161.276 86.9591 159.67 86.9046L125.904 85.7086C124.575 85.6623 123.813 84.2347 124.538 83.1613C125.004 82.4693 125.574 81.6683 126.248 80.8047" stroke="#47291A" stroke-width="3" stroke-linecap="round" stroke-linejoin="round"/>
<path d="M185.032 78.5271C177.035 65.5481 194.012 51.64 194.012 51.64L164.643 52.3157C164.643 52.3157 154.884 53.9639 151.396 67.8066" stroke="#47291A" stroke-width="3" stroke-linecap="round" stroke-linejoin="round"/>
<path d="M194.012 51.64L195.35 55.0455C195.753 56.0726 195.415 57.2278 194.52 57.9089C191.182 60.448 183.669 67.4851 185.032 78.5271C185.032 78.5271 168.85 76.0534 163.057 92.8874" stroke="#47291A" stroke-width="3" stroke-linecap="round" stroke-linejoin="round"/>
<path d="M162.681 87.0082L163.057 92.8874L124.947 91.5034L124.58 85.7767" stroke="#47291A" stroke-width="3" stroke-linecap="round" stroke-linejoin="round"/>
<path d="M140.432 63.7254C138.71 62.6601 138.098 60.9383 137.884 59.7069C137.728 58.816 138.234 57.9415 139.097 57.5982C142.026 56.4403 143.878 57.4729 143.878 57.4729L140.432 63.7226V63.7254Z" fill="#48291A"/>
</svg>
