<svg width="18" height="19" viewBox="0 0 18 19" fill="none" xmlns="http://www.w3.org/2000/svg">
<path d="M0.932595 3.9928C-0.125029 8.32283 -1.61861 15.1152 4.9867 18.042C12.1477 19.2112 14.8746 12.7962 16.5252 8.64196" fill="#48291A"/>
<path d="M5.80402 7.00557C2.0776 5.50616 0.00035432 3.61423 0.361022 2.48517C1.11821 0.11352 4.94645 -0.317059 9.30314 0.751776C9.68962 0.176516 10.3357 -0.125999 10.9265 0.0498332C11.5238 0.227742 11.883 0.840384 11.8579 1.53471C15.8869 3.02859 18.6153 5.39332 17.8803 7.69713C17.4472 9.05325 13.4705 9.40768 8.23978 7.8515C7.36572 7.59122 6.55189 7.3067 5.80402 7.00557Z" fill="#48291A"/>
</svg>
