<svg width="1920" height="2252" viewBox="0 0 1920 2252" fill="none" xmlns="http://www.w3.org/2000/svg">
<path d="M210.032 447.067C208.877 446.56 208.057 445.544 207.477 444.47C206.442 444.84 205.261 444.977 204.107 444.47C203.188 444.067 202.399 443.298 201.823 442.241C201.008 440.688 200.857 438.961 201.372 437.326C201.582 436.658 201.894 436.022 202.318 435.401C201.643 433.904 201.562 432.157 202.093 430.471C202.799 428.227 204.75 426.147 208.029 426.978C208.264 426.648 208.515 426.336 208.782 426.045C210.226 424.467 212.097 424.018 213.912 424.814C215.532 425.523 216.603 427.163 216.849 429.313C216.905 429.796 216.919 430.296 216.895 430.816C217.862 431.384 218.598 432.086 219.13 432.944C220.063 434.452 220.252 436.306 219.665 438.17C219.094 439.981 217.959 441.291 216.466 441.857C216.44 441.866 216.414 441.876 216.388 441.886C216.347 442.56 216.236 443.181 216.053 443.759C215.539 445.393 214.47 446.585 213.042 447.117C212.036 447.501 210.988 447.485 210.029 447.065L210.032 447.067Z" fill="#48291A"/>
<path d="M206.603 435.577C205.793 435.048 205.236 434.463 204.932 433.818C204.628 433.175 204.599 432.461 204.846 431.679C205.309 430.208 206.446 429.87 208.26 430.665C208.567 430.799 208.807 430.915 208.98 431.013L209.261 431.17C209.641 430.14 210.146 429.281 210.778 428.591C211.409 427.9 212.113 427.726 212.891 428.065C213.49 428.327 213.839 428.9 213.94 429.779C214.04 430.66 213.891 431.762 213.493 433.088C214.133 433.281 214.606 433.445 214.913 433.579C215.803 433.97 216.419 434.44 216.762 434.992C217.104 435.544 217.155 436.202 216.915 436.966C216.656 437.788 216.208 438.319 215.57 438.56C214.932 438.803 214.098 438.774 213.069 438.476C213.508 440.298 213.586 441.658 213.304 442.555C213.106 443.185 212.725 443.605 212.162 443.815C211.764 443.967 211.396 443.968 211.055 443.819C210.261 443.472 209.6 442.237 209.071 440.114L208.976 439.714L208.683 439.943C207.107 441.144 205.923 441.57 205.13 441.223C204.806 441.081 204.528 440.797 204.294 440.367C203.984 439.775 203.927 439.163 204.126 438.533C204.408 437.635 205.22 436.666 206.562 435.624L206.604 435.577H206.603Z" fill="#FFEFE1"/>
<path d="M152.034 1700.56C150.604 1714.3 168.85 1754.54 176.25 1731.33C181.141 1739.89 210.692 1745.36 201.173 1728.41C201.173 1728.41 223.181 1731.64 224.741 1718.09C226.158 1695.43 199.701 1700.64 199.701 1700.64C199.701 1700.64 205.321 1684.7 187.306 1692.6C187.306 1692.6 191.227 1659.39 153.882 1698.18C153.882 1698.18 150.842 1693.38 147.684 1692.7C147.138 1692.59 146.583 1692.87 146.294 1693.44L146.173 1693.67C145.728 1694.53 146.067 1695.65 146.871 1695.98C148.746 1696.75 151.651 1698.29 152.034 1700.56L152.034 1700.56Z" fill="#DF8852" fill-opacity="0.1"/>
<rect width="1920" height="2252" fill="#FFEFE1"/>
<path d="M1943.94 135.44C1934.28 117.175 1908.98 104.139 1879.29 104.139C1864.04 104.139 1849.96 107.586 1838.55 113.406C1823.12 85.6732 1784.36 66 1738.95 66C1707.71 66 1679.62 75.3069 1660.09 90.1523C1647.57 84.2785 1632.46 80.8454 1616.2 80.8454C1579.35 80.8454 1548.46 98.4669 1540.03 122.23C1530.5 120.205 1520.39 119.119 1509.92 119.119C1453.08 119.119 1407 151.09 1407 190.517C1407 229.944 1453.08 261.914 1509.92 261.914C1524.79 261.914 1538.91 259.715 1551.68 255.772C1567.23 266.769 1588.89 273.595 1612.84 273.595C1625.98 273.595 1638.44 271.543 1649.56 267.868C1668.24 289.392 1702.22 303.795 1741.08 303.795C1777.02 303.795 1808.78 291.458 1828.13 272.576C1831.38 272.844 1834.68 272.991 1838.04 272.991C1877.44 272.991 1910.55 254.364 1920.12 229.099C1925.87 230.185 1931.92 230.775 1938.17 230.775C1976.18 230.775 2007 209.399 2007 183.02C2007 156.642 1979.25 137.478 1943.92 135.44H1943.94Z" fill="#DF8852" fill-opacity="0.1"/>
<path d="M923.064 1576.09C916.64 1563.94 899.819 1555.27 880.075 1555.27C869.932 1555.27 860.568 1557.56 852.983 1561.43C842.721 1542.98 816.945 1529.9 786.749 1529.9C765.972 1529.9 747.29 1536.09 734.307 1545.96C725.977 1542.06 715.933 1539.77 705.118 1539.77C680.612 1539.77 660.07 1551.5 654.463 1567.3C648.13 1565.96 641.407 1565.24 634.439 1565.24C596.64 1565.24 566 1586.5 566 1612.74C566 1638.97 596.64 1660.24 634.439 1660.24C644.328 1660.24 653.719 1658.77 662.211 1656.15C672.555 1663.46 686.954 1668.01 702.886 1668.01C711.624 1668.01 719.908 1666.64 727.302 1664.2C739.723 1678.52 762.324 1688.1 788.165 1688.1C812.063 1688.1 833.186 1679.89 846.051 1667.33C848.211 1667.51 850.406 1667.6 852.638 1667.6C878.842 1667.6 900.862 1655.21 907.222 1638.4C911.051 1639.13 915.071 1639.52 919.226 1639.52C944.504 1639.52 965 1625.3 965 1607.75C965 1590.2 946.545 1577.45 923.055 1576.09H923.064Z" fill="#DF8852" fill-opacity="0.1"/>
<path d="M1765.06 927.56C1758.64 915.409 1741.82 906.737 1722.08 906.737C1711.93 906.737 1702.57 909.03 1694.98 912.902C1684.72 894.451 1658.94 881.363 1628.75 881.363C1607.97 881.363 1589.29 887.555 1576.31 897.431C1567.98 893.523 1557.93 891.239 1547.12 891.239C1522.61 891.239 1502.07 902.963 1496.46 918.772C1490.13 917.425 1483.41 916.702 1476.44 916.702C1438.64 916.702 1408 937.972 1408 964.202C1408 990.433 1438.64 1011.7 1476.44 1011.7C1486.33 1011.7 1495.72 1010.24 1504.21 1007.62C1514.55 1014.93 1528.95 1019.47 1544.89 1019.47C1553.62 1019.47 1561.91 1018.11 1569.3 1015.66C1581.72 1029.98 1604.32 1039.57 1630.16 1039.57C1654.06 1039.57 1675.19 1031.36 1688.05 1018.8C1690.21 1018.97 1692.41 1019.07 1694.64 1019.07C1720.84 1019.07 1742.86 1006.68 1749.22 989.871C1753.05 990.593 1757.07 990.986 1761.23 990.986C1786.5 990.986 1807 976.764 1807 959.215C1807 941.666 1788.55 928.916 1765.05 927.56H1765.06Z" fill="#DF8852" fill-opacity="0.1"/>
<path d="M241.064 506.997C234.64 494.845 217.819 486.173 198.075 486.173C187.932 486.173 178.568 488.466 170.983 492.338C160.721 473.888 134.945 460.799 104.749 460.799C83.9718 460.799 65.2902 466.991 52.3066 476.868C43.9774 472.96 33.9335 470.676 23.1183 470.676C-1.38821 470.676 -21.9298 482.399 -27.537 498.209C-33.87 496.862 -40.5932 496.139 -47.5614 496.139C-85.36 496.139 -116 517.409 -116 543.639C-116 569.869 -85.36 591.139 -47.5614 591.139C-37.6717 591.139 -28.281 589.676 -19.7885 587.053C-9.44516 594.369 4.9539 598.91 20.8863 598.91C29.6237 598.91 37.9075 597.545 45.3021 595.1C57.7232 609.42 80.3244 619.002 106.165 619.002C130.063 619.002 151.186 610.794 164.051 598.232C166.211 598.41 168.406 598.508 170.638 598.508C196.842 598.508 218.862 586.116 225.222 569.307C229.051 570.03 233.071 570.422 237.226 570.422C262.504 570.422 283 556.201 283 538.652C283 521.102 264.545 508.353 241.055 506.997H241.064Z" fill="#DF8852" fill-opacity="0.1"/>
<path d="M165.034 886.564C163.604 898.013 181.85 931.522 189.25 912.197C194.141 919.328 223.692 923.877 214.173 909.763C214.173 909.763 236.181 912.45 237.741 901.17C239.158 882.295 212.701 886.635 212.701 886.635C212.701 886.635 218.321 873.355 200.306 879.94C200.306 879.94 204.227 852.28 166.882 884.582C166.882 884.582 163.842 880.584 160.684 880.024C160.138 879.926 159.583 880.166 159.294 880.634L159.173 880.829C158.728 881.543 159.067 882.476 159.871 882.75C161.746 883.394 164.651 884.679 165.034 886.568L165.034 886.564Z" fill="#DF8852" fill-opacity="0.1"/>
<path d="M395.211 961.274C400.034 967.733 400.561 994.122 389.399 984.884C388.901 990.836 372.571 1003.45 373.459 991.726C373.459 991.726 361.055 1000.7 356.212 994.384C348.831 983.422 366.358 977.223 366.358 977.223C366.358 977.223 358.364 971.054 371.554 969.031C371.554 969.031 359.619 953.583 393.406 960.69C393.406 960.69 393.866 957.253 395.586 955.861C395.883 955.619 396.302 955.579 396.639 955.766L396.779 955.844C397.296 956.128 397.413 956.807 397.02 957.241C396.107 958.257 394.791 960.005 395.212 961.277L395.211 961.274Z" fill="#DF8852" fill-opacity="0.1"/>
<path d="M565.5 1199C582.423 1199 597.139 1206.85 604.664 1218.42C609.35 1216.24 614.75 1215 620.5 1215C634.039 1215 645.644 1221.88 650.529 1231.66C654.492 1229.35 659.307 1228 664.5 1228C678.031 1228 689 1237.18 689 1248.5C689 1259.82 678.031 1269 664.5 1269C661.062 1269 657.79 1268.41 654.82 1267.34C651.773 1275.28 643.156 1281 633 1281C629.094 1281 625.415 1280.15 622.193 1278.66C616.473 1286.66 606.211 1292 594.5 1292C580.191 1292 568.042 1284.03 563.703 1272.97C563.092 1272.95 562.485 1272.92 561.881 1272.88C557.487 1278.38 550 1282 541.5 1282C531.122 1282 522.251 1276.6 518.681 1268.98C518.289 1268.99 517.896 1269 517.5 1269C503.969 1269 493 1259.82 493 1248.5C493 1237.18 503.969 1228 517.5 1228C519.022 1228 520.512 1228.12 521.957 1228.34C526.201 1211.58 544.083 1199 565.5 1199Z" fill="#DF8852" fill-opacity="0.1"/>
<path d="M153.5 1896C170.423 1896 185.139 1903.85 192.664 1915.42C197.35 1913.24 202.75 1912 208.5 1912C222.039 1912 233.644 1918.88 238.529 1928.66C242.492 1926.35 247.307 1925 252.5 1925C266.031 1925 277 1934.18 277 1945.5C277 1956.82 266.031 1966 252.5 1966C249.062 1966 245.79 1965.41 242.82 1964.34C239.773 1972.28 231.156 1978 221 1978C217.094 1978 213.415 1977.15 210.193 1975.66C204.473 1983.66 194.211 1989 182.5 1989C168.191 1989 156.042 1981.03 151.703 1969.97C151.092 1969.95 150.485 1969.92 149.881 1969.88C145.487 1975.38 138 1979 129.5 1979C119.122 1979 110.251 1973.6 106.681 1965.98C106.289 1965.99 105.896 1966 105.5 1966C91.969 1966 81 1956.82 81 1945.5C81 1934.18 91.969 1925 105.5 1925C107.022 1925 108.512 1925.12 109.957 1925.34C114.201 1908.58 132.083 1896 153.5 1896Z" fill="#DF8852" fill-opacity="0.1"/>
<path d="M1768.5 1371C1785.42 1371 1800.14 1378.85 1807.66 1390.42C1812.35 1388.24 1817.75 1387 1823.5 1387C1837.04 1387 1848.64 1393.88 1853.53 1403.66C1857.49 1401.35 1862.31 1400 1867.5 1400C1881.03 1400 1892 1409.18 1892 1420.5C1892 1431.82 1881.03 1441 1867.5 1441C1864.06 1441 1860.79 1440.41 1857.82 1439.34C1854.77 1447.28 1846.16 1453 1836 1453C1832.09 1453 1828.42 1452.15 1825.19 1450.66C1819.47 1458.66 1809.21 1464 1797.5 1464C1783.19 1464 1771.04 1456.03 1766.7 1444.97C1766.09 1444.95 1765.48 1444.92 1764.88 1444.88C1760.49 1450.38 1753 1454 1744.5 1454C1734.12 1454 1725.25 1448.6 1721.68 1440.98C1721.29 1440.99 1720.9 1441 1720.5 1441C1706.97 1441 1696 1431.82 1696 1420.5C1696 1409.18 1706.97 1400 1720.5 1400C1722.02 1400 1723.51 1400.12 1724.96 1400.34C1729.2 1383.58 1747.08 1371 1768.5 1371Z" fill="#DF8852" fill-opacity="0.1"/>
<path d="M1055.6 680C1071.62 680 1085.54 687.432 1092.66 698.374C1097.09 696.315 1102.2 695.14 1107.65 695.14C1120.46 695.14 1131.44 701.649 1136.06 710.903C1139.81 708.721 1144.37 707.441 1149.28 707.441C1162.08 707.442 1172.46 716.126 1172.46 726.839C1172.46 737.552 1162.08 746.236 1149.28 746.236C1146.03 746.236 1142.93 745.674 1140.12 744.662C1137.24 752.175 1129.08 757.592 1119.47 757.592C1115.78 757.592 1112.3 756.789 1109.25 755.375C1103.84 762.949 1094.12 768 1083.04 768C1069.5 768 1058.01 760.461 1053.9 749.99C1053.32 749.971 1052.75 749.943 1052.18 749.905C1048.02 755.11 1040.94 758.537 1032.89 758.537C1023.07 758.537 1014.68 753.428 1011.3 746.213C1010.93 746.228 1010.56 746.236 1010.18 746.236C997.379 746.236 987 737.552 987 726.839C987 716.126 997.379 707.442 1010.18 707.441C1011.62 707.441 1013.03 707.551 1014.4 707.762C1018.42 691.905 1035.34 680 1055.6 680Z" fill="#DF8852" fill-opacity="0.1"/>
<path d="M221.042 1090.79C218.688 1093.24 215.682 1094.36 214.103 1094.8C213.558 1094.96 213.012 1094.56 213 1094C212.991 1093.55 213.34 1093.16 213.8 1093.13C216.699 1092.94 219.341 1090.99 220.64 1089.86C219.727 1087.52 219.28 1084.6 219.602 1080.97C220.956 1065.68 229.111 1061.8 231.922 1066.5C231.922 1066.5 240.009 1043.8 248.021 1055.62C248.021 1055.62 257.337 1043.24 267.671 1048.91C267.671 1048.91 274.849 1053.94 264.883 1064.97C264.883 1064.97 273.813 1063.23 273.997 1069.7C274.23 1077.9 261.147 1080.83 258.079 1081.72C262.507 1081.68 273.114 1100.88 234.885 1099.43C234.885 1099.43 224.946 1099.03 221.045 1090.8L221.042 1090.79Z" fill="#DF8852" fill-opacity="0.1"/>
<path d="M319.72 1236.03C321.412 1235.3 322.532 1234 323.045 1233.29C323.223 1233.05 323.117 1232.71 322.83 1232.6C322.599 1232.51 322.337 1232.62 322.239 1232.84C321.616 1234.25 320.128 1235.22 319.311 1235.66C318.265 1234.78 316.839 1234.03 314.905 1233.53C306.761 1231.44 303.282 1234.81 305.203 1237.06C305.203 1237.06 292.016 1236.99 296.674 1243.12C296.674 1243.12 288.594 1245.53 289.655 1251.71C289.655 1251.71 290.951 1256.2 298.454 1253.23C298.454 1253.23 295.939 1257.36 299.248 1258.63C303.441 1260.23 307.322 1254.23 308.335 1252.86C307.512 1255.06 315.511 1263.82 321.676 1244.5C321.676 1244.5 323.269 1239.47 319.721 1236.03L319.72 1236.03Z" fill="#DF8852" fill-opacity="0.1"/>
</svg>
