<svg width="17" height="18" viewBox="0 0 17 18" fill="none" xmlns="http://www.w3.org/2000/svg">
<path d="M0.843984 3.83447C-0.11315 7.93011 -1.46482 14.3548 4.51289 17.1232C10.9935 18.2291 13.4613 12.1613 14.9551 8.23196" fill="#FFEFE2"/>
<path d="M5.37874 6.65942C1.98406 5.23409 0.0917368 3.43565 0.420297 2.36238C1.11008 0.107911 4.59752 -0.301393 8.56636 0.714631C8.91844 0.167794 9.50697 -0.119773 10.0452 0.0473709C10.5893 0.216489 10.9166 0.79886 10.8937 1.45888C14.564 2.87895 17.0495 5.12683 16.3799 7.31681C15.9854 8.60592 12.3628 8.94285 7.59767 7.46356C6.80141 7.21613 6.06003 6.94567 5.37874 6.65942Z" fill="#FFEFE2"/>
</svg>
