<svg width="14" height="14" viewBox="0 0 14 14" fill="none" xmlns="http://www.w3.org/2000/svg">
<path d="M6.71317 0C10.4209 0 13.4263 3.00549 13.4263 6.71317C13.4263 10.4209 10.4209 13.4263 6.71317 13.4263C3.00549 13.4263 0 10.4209 0 6.71317C0 3.00549 3.00549 0 6.71317 0ZM6.71317 2.68527C6.53513 2.68527 6.36438 2.756 6.23848 2.88189C6.11258 3.00779 6.04185 3.17854 6.04185 3.35659V6.71317C6.04189 6.8912 6.11265 7.06193 6.23855 7.18779L8.2525 9.20174C8.37911 9.32403 8.54869 9.3917 8.72471 9.39017C8.90072 9.38864 9.0691 9.31804 9.19357 9.19357C9.31804 9.0691 9.38864 8.90072 9.39017 8.72471C9.3917 8.54869 9.32403 8.37911 9.20174 8.2525L7.38449 6.43525V3.35659C7.38449 3.17854 7.31376 3.00779 7.18787 2.88189C7.06197 2.756 6.89122 2.68527 6.71317 2.68527Z" fill="#49291A"/>
</svg>
