<svg width="13" height="16" viewBox="0 0 13 16" fill="none" xmlns="http://www.w3.org/2000/svg">
<path d="M6.5 0C3.0875 0 0 2.61822 0 6.66751C0 9.25321 1.99062 12.2942 5.96375 15.7988C6.2725 16.0671 6.73562 16.0671 7.04437 15.7988C11.0094 12.2942 13 9.25321 13 6.66751C13 2.61822 9.9125 0 6.5 0ZM6.5 8.13111C5.60625 8.13111 4.875 7.39931 4.875 6.50489C4.875 5.61047 5.60625 4.87867 6.5 4.87867C7.39375 4.87867 8.125 5.61047 8.125 6.50489C8.125 7.39931 7.39375 8.13111 6.5 8.13111Z" fill="#49291A"/>
</svg>
