<svg width="35" height="35" viewBox="0 0 35 35" fill="none" xmlns="http://www.w3.org/2000/svg">
<circle cx="17.5" cy="17.5" r="17.5" fill="#48291A"/>
<path d="M7.30933 16.1345C7.30933 11.9746 7.30933 9.89417 8.60218 8.60242C9.89503 7.31067 11.9744 7.30957 16.1342 7.30957H18.3405C22.5003 7.30957 24.5808 7.30957 25.8725 8.60242C27.1643 9.89527 27.1654 11.9746 27.1654 16.1345V18.3407C27.1654 22.5006 27.1654 24.581 25.8725 25.8728C24.5797 27.1645 22.5003 27.1656 18.3405 27.1656H16.1342C11.9744 27.1656 9.89392 27.1656 8.60218 25.8728C7.31043 24.5799 7.30933 22.5006 7.30933 18.3407V16.1345Z" stroke="#FFEFE2" stroke-width="2"/>
<path d="M22.2014 13.9285C23.1153 13.9285 23.8561 13.1877 23.8561 12.2738C23.8561 11.36 23.1153 10.6191 22.2014 10.6191C21.2876 10.6191 20.5468 11.36 20.5468 12.2738C20.5468 13.1877 21.2876 13.9285 22.2014 13.9285Z" fill="#FFEFE2"/>
<path d="M17.2373 20.5469C19.065 20.5469 20.5467 19.0653 20.5467 17.2376C20.5467 15.4099 19.065 13.9282 17.2373 13.9282C15.4096 13.9282 13.928 15.4099 13.928 17.2376C13.928 19.0653 15.4096 20.5469 17.2373 20.5469Z" stroke="#FFEFE2" stroke-width="2"/>
</svg>
