<svg width="35" height="35" viewBox="0 0 35 35" fill="none" xmlns="http://www.w3.org/2000/svg">
<circle cx="17.5" cy="17.5" r="17.5" fill="#48291A"/>
<path d="M17.6858 7.63623C23.993 7.63623 29.103 11.6679 29.103 16.6392C29.103 21.6105 23.993 25.6422 17.6858 25.6422C16.992 25.6422 16.3141 25.5946 15.6561 25.4995C14.998 25.9633 11.1922 28.6352 10.8315 28.6868C10.8315 28.6868 10.6848 28.7423 10.5579 28.6709C10.4311 28.5995 10.4549 28.4053 10.4549 28.4053C10.4945 28.1437 11.446 24.8691 11.6204 24.2626C8.40532 22.6729 6.26855 19.8503 6.26855 16.6352C6.26855 11.664 11.3786 7.63623 17.6858 7.63623ZM9.6858 13.9474C9.32901 13.9474 9.03961 14.2368 9.03961 14.5936C9.03961 14.9504 9.32901 15.2398 9.6858 15.2398H10.7126V19.1526C10.7126 19.5014 11.0099 19.7829 11.3706 19.7829C11.7314 19.7829 12.0287 19.5014 12.0287 19.1526V15.2398H13.0555C13.4123 15.2398 13.7017 14.9504 13.7017 14.5936C13.7017 14.2368 13.4123 13.9474 13.0555 13.9474H9.68183H9.6858ZM15.2676 13.9474C14.8394 13.9554 14.5024 14.2804 14.3914 14.5976L12.8176 18.7443C12.6194 19.3667 12.7938 19.5966 12.9722 19.6798C13.0991 19.7393 13.2458 19.771 13.3924 19.771C13.666 19.771 13.8761 19.66 13.9395 19.4816L14.2646 18.6253H16.2745L16.5996 19.4777C16.663 19.656 16.8731 19.767 17.1466 19.767C17.2933 19.767 17.436 19.7353 17.5669 19.6759C17.7492 19.5926 17.9237 19.3627 17.7215 18.7403L16.1476 14.5976C16.0366 14.2804 15.6997 13.9554 15.2676 13.9474ZM22.439 13.9474C22.0743 13.9474 21.7809 14.2448 21.7809 14.6055V19.1129C21.7809 19.4777 22.0783 19.771 22.439 19.771C22.7998 19.771 23.0971 19.4737 23.0971 19.1129V17.6778L23.327 17.4479L24.8691 19.4935C24.996 19.66 25.1863 19.7552 25.3964 19.7552C25.5391 19.7552 25.6779 19.7115 25.7928 19.6243C25.9316 19.5173 26.0228 19.3627 26.0465 19.1883C26.0703 19.0138 26.0267 18.8394 25.9197 18.7006L24.2983 16.552L25.8008 15.0535C25.9038 14.9504 25.9554 14.8077 25.9474 14.6531C25.9395 14.4985 25.8682 14.3518 25.7532 14.2368C25.6303 14.1139 25.4638 14.0426 25.3013 14.0426C25.1585 14.0426 25.0317 14.0941 24.9365 14.1892L23.1011 16.0287V14.6134C23.1011 14.2487 22.8037 13.9554 22.443 13.9554L22.439 13.9474ZM18.8196 13.9474C18.4509 13.9474 18.1496 14.2448 18.1496 14.6055V19.0773C18.1496 19.4103 18.4311 19.6798 18.7799 19.6838H20.8929C21.2418 19.6838 21.5233 19.4103 21.5233 19.0773C21.5233 18.7443 21.2378 18.4747 20.8929 18.4747H19.4935V14.6055C19.4935 14.2408 19.1922 13.9474 18.8196 13.9474ZM15.9256 17.4598H14.6095L15.2676 15.5926L15.9256 17.4598Z" fill="#FFEFE2"/>
</svg>
