<svg width="150" height="42" viewBox="0 0 150 42" fill="none" xmlns="http://www.w3.org/2000/svg">
<path d="M40.2171 6.20086C39.6681 2.96446 37.7336 0.480957 33.9064 0.480957C31.5954 0.480957 29.9093 1.39593 28.8975 2.84159C26.0559 6.83873 23.358 12.8122 21.0941 17.8211C20.7569 18.4459 20.2759 18.4459 19.9386 17.8211C17.6747 12.8122 14.9298 6.83873 12.1352 2.84159C11.0764 1.39593 9.43732 0.480957 7.12635 0.480957C3.03249 0.480957 1.05876 3.32261 0.721524 6.88579C-0.240508 15.9911 -0.240508 26.0558 0.721524 35.2082C1.05876 38.8211 3.12922 41.6627 7.12635 41.6627C11.1235 41.6627 13.1469 38.8211 13.4841 35.2082C13.8214 32.0293 14.0619 29.3811 14.2057 26.2022H14.203C13.1443 23.8887 12.3731 22.1554 11.7953 19.9882C11.5078 18.8798 12.6633 18.6393 12.9038 19.5543C14.0122 23.0233 15.8422 26.8767 17.5283 29.9589C18.8773 32.4162 22.1529 32.4162 23.5018 29.9589C25.188 26.8767 27.0179 23.0233 28.1264 19.5543C28.3669 18.6393 29.525 18.8798 29.2348 19.9882C28.657 22.1554 27.8858 23.8913 26.8271 26.2022C26.9709 29.3811 27.2114 32.0293 27.5486 35.2082C27.8858 38.8211 29.8125 41.6627 33.9064 41.6627C38.0003 41.6627 39.825 38.9648 40.2772 35.4853C37.8748 31.8359 36.6565 26.9787 36.6565 20.9999C36.6565 14.6657 37.8251 9.80325 40.2171 6.20086Z" fill="#49291A"/>
<path d="M72.6936 6.74729C72.6988 6.68717 72.7067 6.62704 72.7145 6.56691C69.7474 2.35541 64.7673 0 57.1338 0C43.0223 0 37.9637 8.04394 37.9637 21C37.9637 33.9561 43.8405 42 57.1338 42C64.5085 42 69.5958 39.5217 72.6701 35.1037C71.7237 25.9356 71.729 15.8709 72.6936 6.74729ZM63.0811 19.7582C63.0315 20.0327 62.7674 20.2732 62.3309 20.4562C61.6538 23.1986 60.5035 27.444 56.0567 27.2532C51.8139 25.9121 52.1825 21.5281 52.4857 18.7204C52.138 18.3989 51.9707 18.0825 52.0204 17.808C52.2897 16.2866 54.4987 15.7167 57.1599 16.0173V15.9912C57.2619 15.4082 57.7272 15.003 58.2004 15.084C58.6736 15.1651 58.9716 15.7062 58.8696 16.2918C58.867 16.3023 58.8618 16.3101 58.8618 16.3179C61.4656 16.9454 63.3478 18.2368 63.0785 19.7582H63.0811Z" fill="#49291A"/>
<path d="M113.485 6.19825C112.936 2.96447 111.002 0.480957 107.177 0.480957C104.866 0.480957 103.18 1.39593 102.168 2.84159C99.3266 6.83873 96.6288 12.8122 94.3649 17.8211C94.0276 18.4459 93.5466 18.4459 93.2094 17.8211C90.9455 12.8122 88.2005 6.83873 85.4059 2.84159C84.3472 1.39593 82.7081 0.480957 80.3971 0.480957C76.3032 0.480957 74.3295 3.32261 73.9923 6.88579C73.0302 15.9911 73.0302 26.0558 73.9923 35.2082C74.3295 38.8211 76.4 41.6627 80.3971 41.6627C84.3942 41.6627 86.4176 38.8211 86.7549 35.2082C87.0921 32.0293 87.3326 29.3811 87.4764 26.2022H87.4738C86.415 23.8887 85.6438 22.1554 85.0661 19.9882C84.7785 18.8798 85.934 18.6393 86.1745 19.5543C87.283 23.0233 89.1129 26.8767 90.7991 29.9589C92.148 32.4162 95.4236 32.4162 96.7726 29.9589C98.4587 26.8767 100.289 23.0233 101.397 19.5543C101.638 18.6393 102.796 18.8798 102.506 19.9882C101.928 22.1554 101.157 23.8913 100.098 26.2022C100.242 29.3811 100.482 32.0293 100.819 35.2082C101.157 38.8211 103.083 41.6627 107.177 41.6627C111.271 41.6627 113.096 38.9675 113.548 35.4879C111.146 31.8385 109.925 26.9787 109.925 20.9999C109.925 14.6657 111.093 9.80064 113.485 6.19825Z" fill="#49291A"/>
<path d="M111.232 21C111.232 8.04394 116.291 0 130.402 0C144.514 0 149.573 8.04394 149.573 21C149.573 33.9561 143.696 42 130.402 42C117.109 42 111.232 33.9561 111.232 21ZM136.347 19.7582C136.616 18.2368 134.734 16.9454 132.13 16.3179C132.13 16.3101 132.136 16.3023 132.138 16.2918C132.24 15.7062 131.942 15.1651 131.469 15.084C130.996 15.0004 130.531 15.4082 130.429 15.9912V16.0173C127.767 15.7167 125.558 16.2866 125.289 17.808C125.239 18.0825 125.407 18.3989 125.754 18.7204C125.451 21.5281 125.083 25.9121 129.325 27.2532C133.772 27.444 134.922 23.1986 135.6 20.4562C136.036 20.2732 136.3 20.0327 136.35 19.7582H136.347Z" fill="#49291A"/>
</svg>
