<svg width="69" height="73" viewBox="0 0 69 73" fill="none" xmlns="http://www.w3.org/2000/svg">
<path d="M16.7012 51.2062L5.08047 67.9918" stroke="#48291A" stroke-width="5" stroke-linecap="round"/>
<path d="M19.2852 65.4091L2.49955 53.7884" stroke="#48291A" stroke-width="5" stroke-linecap="round"/>
<path d="M44.4805 42.8785C42.1306 41.7957 40.5586 39.8802 39.4955 37.9055C37.2727 38.372 34.7773 38.4078 32.4321 37.3254C30.5635 36.4634 29.0187 34.9835 27.9624 33.0392C26.4766 30.1882 26.409 27.1464 27.7213 24.3808C28.2576 23.2506 29.0026 22.1927 29.9818 21.1816C28.78 18.4525 28.8612 15.3885 30.2158 12.5346C32.0189 8.73829 36.4063 5.44318 43.1605 7.45867C43.7016 6.92292 44.2726 6.42172 44.873 5.95963C48.1268 3.45203 52.1135 2.99056 55.8058 4.69268C59.1002 6.21076 61.109 9.25834 61.3176 13.0548C61.3643 13.9071 61.3228 14.782 61.1972 15.6867C63.1442 16.8441 64.5851 18.1962 65.5771 19.7867C67.3173 22.5806 67.4479 25.85 65.9496 29.004C64.4938 32.0675 61.9252 34.159 58.7145 34.8905C58.6599 34.9021 58.603 34.9135 58.5481 34.9273C58.3657 36.098 58.0425 37.163 57.5771 38.1407C56.2649 40.9041 53.8523 42.802 50.7832 43.4856C48.6187 43.982 46.4233 43.7742 44.4737 42.8757L44.4805 42.8785Z" fill="#48291A"/>
<path d="M38.939 22.2266C37.3155 21.1645 36.2335 20.046 35.6884 18.8684C35.1431 17.693 35.1852 16.4421 35.8144 15.1178C36.9965 12.6304 39.428 12.2361 43.1159 13.9356C43.7411 14.2231 44.2275 14.4672 44.5751 14.6677L45.1438 14.9896C46.0865 13.2577 47.2692 11.8435 48.6918 10.7472C50.1144 9.65094 51.6162 9.46698 53.1972 10.1931C54.416 10.7541 55.0665 11.8143 55.1513 13.3669C55.2337 14.9216 54.765 16.8209 53.7404 19.0667C55.0526 19.5138 56.0212 19.8823 56.6464 20.1699C58.4565 21.0042 59.6802 21.9326 60.3197 22.9552C60.9569 23.9775 60.9693 25.1343 60.3566 26.4279C59.6963 27.8184 58.6813 28.6684 57.3091 28.9799C55.9367 29.2938 54.1929 29.1001 52.0776 28.4012C52.7365 31.659 52.7062 34.0461 51.9864 35.5647C51.4811 36.6309 50.621 37.2987 49.411 37.5685C48.5547 37.7642 47.7826 37.7031 47.09 37.3848C45.4753 36.6422 44.2662 34.3711 43.4625 30.574L43.3205 29.8583L42.6733 30.2088C39.1978 32.0332 36.6539 32.5741 35.0415 31.8317C34.3827 31.5276 33.8393 30.9831 33.4117 30.1935C32.8452 29.1058 32.8147 28.0278 33.3224 26.9618C34.0422 25.4432 35.8827 23.8905 38.8465 22.3016L38.9413 22.2268L38.939 22.2266Z" fill="#FFEFE1"/>
</svg>
