<svg width="67" height="63" viewBox="0 0 67 63" fill="none" xmlns="http://www.w3.org/2000/svg">
<path d="M9.59241 4.47963C11.1853 3.99669 12.9311 3.96728 14.6452 4.49126C19.9581 6.10748 24.9496 9.50841 29.9042 14.8852C32.6024 17.815 34.7601 20.7309 36.3964 23.6736C52.0131 27.2035 62.5166 35.856 65.2734 47.5011C66.4143 52.3277 63.4577 57.133 58.749 58.3006C54.0038 59.4369 49.2293 56.4471 48.0884 51.6206C47.2551 48.0955 43.7855 45.38 39.5937 43.4944C38.341 48.7636 35.3968 53.4064 31.1741 56.3242C26.7541 59.3748 20.934 60.2762 15.6014 58.7358C10.6616 57.3114 6.67943 53.9229 4.67901 49.4397C0.318226 39.6634 6.32195 28.8377 14.6813 24.7965C12.8734 23.1892 11.2136 22.1656 9.6466 21.6878C4.96471 20.2634 2.28965 15.2556 3.67222 10.508C4.54696 7.4968 6.84104 5.31451 9.595 4.47942L9.59241 4.47963Z" fill="#48291A"/>
<path d="M59.4308 48.5388C58.9394 46.4766 58.0421 44.5139 56.9175 42.7287C56.4271 41.948 55.8749 41.2069 55.2769 40.5092C54.5113 39.6161 53.7096 38.7577 52.8384 37.9712C51.2426 36.5319 49.4461 35.3077 47.5945 34.2336C45.8882 33.2455 44.096 32.4129 42.2599 31.7082C40.2029 30.9185 38.0938 30.2521 35.96 29.7255C33.7092 29.1714 31.4165 28.7373 29.1091 28.5321C27.6522 28.4028 26.1793 28.3304 24.7158 28.4002C23.2522 28.47 21.8195 28.72 20.3977 29.0697C19.1419 29.3793 17.9518 29.8504 16.8097 30.4578C15.8371 30.9746 14.9276 31.5603 14.1097 32.3053C13.2119 33.1231 12.3685 33.9682 11.6825 34.9805C10.9965 35.9927 10.3933 36.9982 9.98341 38.1334C9.5735 39.2687 9.24875 40.3943 9.18274 41.5913C9.14394 42.3068 9.1019 43.0147 9.18279 43.7283C9.26369 44.4419 9.41683 45.147 9.61778 45.8322C9.74966 46.2848 9.927 46.7205 10.1369 47.1402C10.434 47.7301 10.7305 48.3122 11.1242 48.8413C11.5178 49.3704 11.9484 49.8434 12.4081 50.2903C12.7003 50.5735 13.0142 50.8364 13.3466 51.0713C14.2222 51.6932 15.1283 52.2438 16.1384 52.6057C17.1485 52.9677 18.1774 53.2752 19.2544 53.3801C20.3315 53.485 21.4498 53.523 22.5333 53.3652C23.6169 53.2074 24.6798 52.9586 25.6759 52.5353C26.672 52.1119 27.6941 51.5329 28.5619 50.8234C29.4758 50.0732 30.3349 49.2294 31.0357 48.2689C32.4725 46.3026 33.4391 44.0731 33.9565 41.6765C34.2191 40.4633 34.3084 39.2326 34.3471 37.9901C34.3803 36.9917 34.3221 35.9902 34.1738 35.0014C33.7946 32.4772 33.0059 30.0395 31.8433 27.7728C31.2014 26.5226 30.5232 25.3046 29.7374 24.1404C29.0764 23.1592 28.3612 22.2143 27.6122 21.3013C26.0104 19.3567 24.2819 17.486 22.4057 15.8102C21.5691 15.0633 20.6941 14.3565 19.7801 13.7113C18.6777 12.9332 17.5344 12.1955 16.3316 11.5872C15.1289 10.9789 13.9329 10.5448 12.6813 10.1603C12.2828 10.0685 11.8931 10.082 11.5099 10.2035C11.1233 10.2537 10.771 10.4018 10.4528 10.6451C10.127 10.8598 9.87674 11.1372 9.69697 11.4777C9.46234 11.7856 9.3173 12.1364 9.25927 12.5305C9.15245 13.3045 9.26061 14.1563 9.747 14.7969L10.2557 15.3616C10.6515 15.6998 11.1025 15.9197 11.6112 16.0209C11.753 16.0649 11.8976 16.1113 12.0396 16.1579L11.3158 15.9154C12.97 16.4708 14.5329 17.272 15.9948 18.235L15.3631 17.8182C17.2779 19.0857 19.0116 20.617 20.6197 22.2645C21.0844 22.7401 21.5396 23.227 21.9851 23.7227L21.4765 23.158C23.0314 24.8867 24.4732 26.7253 25.6906 28.7147C26.0349 29.277 26.3596 29.8541 26.6643 30.4408L26.3096 29.7549C27.1878 31.4597 27.8759 33.2595 28.2893 35.1375L28.1194 34.357C28.4272 35.7855 28.5573 37.2392 28.4925 38.6983L28.5296 37.9009C28.4614 39.2888 28.2252 40.6613 27.8049 41.9828L28.0402 41.2485C27.6847 42.3501 27.2056 43.4063 26.5897 44.3837L26.997 43.7438C26.4633 44.5847 25.8324 45.3541 25.1051 46.0308L25.6585 45.5167C25.0515 46.0749 24.3894 46.5662 23.6641 46.9567L24.3375 46.5996C23.5943 46.9942 22.8028 47.279 21.982 47.4629L22.7494 47.294C21.8464 47.4926 20.9224 47.5657 19.9988 47.5197L20.7839 47.5612C19.8834 47.5107 18.9944 47.348 18.1367 47.0635L18.8606 47.306C18.1099 47.0551 17.3934 46.7141 16.7289 46.2787L17.3606 46.6956C16.814 46.33 16.3093 45.9053 15.8644 45.4175L16.3731 45.9822C15.9476 45.5087 15.5833 44.9878 15.2908 44.4213L15.6455 45.1071C15.3551 44.5352 15.1372 43.9281 14.9959 43.3015L15.1658 44.082C15.0129 43.3796 14.9579 42.6638 14.9915 41.9487L14.9544 42.7462C14.9979 41.9323 15.1521 41.1332 15.397 40.3584L15.1618 41.0927C15.4572 40.176 15.8765 39.3075 16.392 38.4972L15.9846 39.137C16.5446 38.2675 17.2097 37.4715 17.9634 36.7688L17.4101 37.2829C18.1498 36.5999 18.9677 36.0085 19.8554 35.5358L19.182 35.8929C20.3222 35.2935 21.5534 34.8774 22.8064 34.5971L22.039 34.766C23.9142 34.3553 25.8422 34.2632 27.758 34.3655L26.9729 34.324C30.1452 34.4979 33.3144 35.1302 36.3774 35.9857C37.1404 36.1985 37.8972 36.4303 38.6478 36.6812L37.924 36.4387C40.2913 37.2321 42.6042 38.2154 44.7846 39.4505C45.3892 39.7928 45.9852 40.157 46.567 40.5382L45.9353 40.1213C47.6566 41.2564 49.2631 42.5757 50.6509 44.1142L50.1423 43.5496C51.197 44.7208 52.1135 46.0147 52.844 47.4191L52.4892 46.7332C53.1209 47.9551 53.6025 49.2502 53.9211 50.5904C54.0442 50.9696 54.2459 51.292 54.5288 51.5574C54.763 51.8639 55.0561 52.0967 55.4134 52.2554C55.7681 52.4461 56.1401 52.5321 56.5298 52.5186C56.9254 52.5762 57.312 52.5259 57.6923 52.3702C58.3792 52.0808 59.0247 51.5777 59.324 50.862L59.5592 50.1277C59.6547 49.5902 59.6102 49.0616 59.4262 48.5471L59.4308 48.5388Z" fill="#FFEFE1"/>
</svg>
