<svg width="169" height="81" viewBox="0 0 169 81" fill="none" xmlns="http://www.w3.org/2000/svg">
<path fill-rule="evenodd" clip-rule="evenodd" d="M131.908 0.00319283C134.501 0.0960485 136.624 2.24893 137.299 5.15651L137.299 5.15944C155.147 7.01274 168.733 13.8845 168.34 24.2278C168.268 26.1143 166.721 27.9689 163.945 29.6048C161.929 48.6057 158.102 78.1385 128.035 80.9993C117.701 79.2552 110.765 74.534 106.091 68.3137C100.905 75.0166 93.2867 79.917 81.9118 80.9993C71.6068 79.2601 64.682 74.5606 60.0085 68.3665C54.8228 75.0422 47.2148 79.9198 35.8698 80.9993C6.10116 75.9753 4.53777 46.2462 3.97529 27.1516C1.33255 25.3189 -0.0692049 23.3594 0.00262973 21.4729C0.407985 10.8284 15.3111 4.91853 34.0007 4.66042C34.9142 1.85951 37.1732 -0.0896506 39.7419 0.00319283C42.3353 0.0957906 44.4592 2.24873 45.1335 5.15651L45.1345 5.15944C50.2413 5.68973 54.9991 6.63177 59.1804 7.94753C64.9184 5.88796 72.1424 4.76953 80.0427 4.66042C80.9562 1.85934 83.216 -0.0898406 85.7849 0.00319283C88.3782 0.0959814 90.5022 2.24878 91.1765 5.15651V5.15944C96.3011 5.69158 101.074 6.63824 105.266 7.9612C111.01 5.89312 118.248 4.76976 126.166 4.66042C127.079 1.85936 129.339 -0.0898402 131.908 0.00319283Z" fill="#48291A"/>
<path d="M57.7828 52.0153C61.9108 52.0153 64.8388 49.0393 64.8388 44.8633C64.8388 40.5913 61.9108 37.6153 57.7828 37.6153C53.7028 37.6153 50.8228 40.5913 50.8228 44.8633C50.8228 49.0393 53.7028 52.0153 57.7828 52.0153ZM45.7348 44.8633C45.7348 42.3193 46.6468 40.0633 47.6548 38.1913L57.4948 20.7193L61.9588 23.1673L56.1508 33.3433C56.7268 33.2473 57.3028 33.1513 57.9268 33.1513C64.9828 33.1993 69.9268 37.9993 69.9268 44.8633C69.9268 51.6793 64.9348 56.4793 57.8308 56.4793C50.7268 56.4793 45.7348 51.6793 45.7348 44.8633ZM114.856 17.1193H120.136V42.3193H114.856V40.8313H106.984V37.2793H114.856V17.1193ZM92.7283 43.7113H120.136V53.1193H98.0563V55.8073H121.048V59.5033H92.8243V49.7593H114.952V47.3593H92.7283V43.7113ZM112.024 32.1913V36.0313H100.312V42.1273H95.0803V36.0313H84.9523V32.1913H112.024ZM98.0563 30.6553C91.9603 30.6553 87.6883 27.8233 87.6883 23.4553C87.6883 19.0873 91.9603 16.3033 98.0563 16.3033C104.104 16.3033 108.328 19.0873 108.328 23.4553C108.328 27.8233 104.104 30.6553 98.0563 30.6553ZM98.0563 26.6233C101.272 26.6233 103.48 25.4713 103.48 23.4553C103.48 21.4873 101.272 20.3833 98.0563 20.3833C94.7923 20.3833 92.6323 21.4873 92.6323 23.4553C92.6323 25.4713 94.7923 26.6233 98.0563 26.6233Z" fill="white"/>
</svg>
