<svg width="35" height="35" viewBox="0 0 35 35" fill="none" xmlns="http://www.w3.org/2000/svg">
<circle cx="17.5" cy="17.5" r="17.5" fill="#48291A"/>
<path d="M15.0311 20.5468L20.7563 17.2374L15.0311 13.9281V20.5468ZM27.7831 11.9094C27.9265 12.4278 28.0258 13.1228 28.092 14.0053C28.1692 14.8878 28.2023 15.6489 28.2023 16.3108L28.2685 17.2374C28.2685 19.6533 28.092 21.4293 27.7831 22.5655C27.5073 23.5583 26.8675 24.1981 25.8747 24.4739C25.3563 24.6173 24.4076 24.7165 22.9515 24.7827C21.5174 24.86 20.2047 24.893 18.9913 24.893L17.2373 24.9592C12.6153 24.9592 9.73614 24.7827 8.59994 24.4739C7.60713 24.1981 6.96733 23.5583 6.69155 22.5655C6.54814 22.047 6.44886 21.352 6.38268 20.4696C6.30546 19.5871 6.27236 18.8259 6.27236 18.164L6.20618 17.2374C6.20618 14.8216 6.38268 13.0456 6.69155 11.9094C6.96733 10.9166 7.60713 10.2768 8.59994 10.001C9.1184 9.85759 10.0671 9.75831 11.5232 9.69212C12.9572 9.61491 14.2699 9.58181 15.4834 9.58181L17.2373 9.51562C21.8594 9.51562 24.7385 9.69212 25.8747 10.001C26.8675 10.2768 27.5073 10.9166 27.7831 11.9094Z" fill="#FFEFE2"/>
</svg>
