<svg width="74" height="74" viewBox="0 0 74 74" fill="none" xmlns="http://www.w3.org/2000/svg">
<path d="M12.13 56.4214C14.3645 56.4214 16.176 54.6099 16.176 52.3753C16.176 50.1408 14.3645 48.3293 12.13 48.3293C9.89544 48.3293 8.08398 50.1408 8.08398 52.3753C8.08398 54.6099 9.89544 56.4214 12.13 56.4214Z" fill="#DF8852"/>
<path d="M9.90908 54.4705C10.2795 54.4705 10.5799 54.1702 10.5799 53.7997C10.5799 53.4292 10.2795 53.1289 9.90908 53.1289C9.53861 53.1289 9.23828 53.4292 9.23828 53.7997C9.23828 54.1702 9.53861 54.4705 9.90908 54.4705Z" fill="white"/>
<path d="M41.3878 57.8462C43.6224 57.8462 45.4338 56.0347 45.4338 53.8002C45.4338 51.5656 43.6224 49.7542 41.3878 49.7542C39.1533 49.7542 37.3418 51.5656 37.3418 53.8002C37.3418 56.0347 39.1533 57.8462 41.3878 57.8462Z" fill="#DF8852"/>
<path d="M39.0614 55.8692C39.4319 55.8692 39.7322 55.5689 39.7322 55.1984C39.7322 54.8279 39.4319 54.5276 39.0614 54.5276C38.6909 54.5276 38.3906 54.8279 38.3906 55.1984C38.3906 55.5689 38.6909 55.8692 39.0614 55.8692Z" fill="white"/>
<path d="M47.077 13.6066C44.162 12.6877 40.9663 12.0969 37.4883 11.9075C34.3106 11.7345 28.4301 12.3629 25.347 13.1447C-0.357103 19.6666 2.65415 40.4858 2.92834 44.1581C3.0279 45.4997 3.18458 48.9842 2.75697 50.1528C-2.17038 63.6227 6.97598 73.8152 37.5291 71.5841C70.8683 69.1506 71.2796 49.7301 70.4113 42.3872C70.0277 39.1508 67.6775 34.1255 66.3424 30.9592" stroke="#DF8852" stroke-width="3" stroke-linecap="round" stroke-linejoin="round"/>
<path d="M44.6855 17.592C44.6855 17.592 56.6963 -3.31537 68.5062 5.96482C79.0937 14.2837 63.5903 35.1747 63.5903 35.1747" stroke="#DF8852" stroke-width="3" stroke-linecap="round" stroke-linejoin="round"/>
<path d="M24.6431 13.3667C23.6198 8.05739 20.8256 0.288541 13.2738 1.65951C3.14164 3.49891 6.79921 24.4552 6.79921 24.4552" stroke="#DF8852" stroke-width="3" stroke-linecap="round" stroke-linejoin="round"/>
<path d="M64.0638 11.4705C64.0638 11.4705 54.5159 16.2917 55.6503 24.9876" stroke="#DF8852" stroke-width="3" stroke-linecap="round" stroke-linejoin="round"/>
<path d="M17.6435 37.6553C16.5174 37.6553 15.5707 36.7805 15.4957 35.6413C14.1051 14.4467 28.7468 11.4648 26.6822 11.9675C27.8361 11.6852 29.9953 12.307 30.2761 13.4625C30.5568 14.6132 29.8566 15.772 28.7109 16.0609C28.2637 16.1816 18.631 17.6016 19.7963 35.3573C19.8746 36.5455 18.9753 37.5705 17.7872 37.6488C17.7398 37.6521 17.6909 37.6537 17.6435 37.6537V37.6553Z" fill="#DF8852"/>
<path d="M24.9234 37.178C23.7972 37.178 22.8506 36.3032 22.7755 35.164C21.3572 13.5695 34.1774 11.1637 34.7275 11.0299C35.883 10.7492 37.05 11.4575 37.3307 12.6131C37.6114 13.7637 36.9112 14.9225 35.7655 15.213C35.3134 15.3354 25.9108 17.1307 27.0745 34.8816C27.1528 36.0698 26.2535 37.0947 25.0654 37.1731C25.018 37.1763 24.9691 37.178 24.9217 37.178H24.9234Z" fill="#DF8852"/>
<path d="M41.4816 11.53C41.1209 11.4174 40.7259 11.3962 40.3326 11.4925C39.7825 11.6263 28.707 13.0854 30.1253 34.6816C30.2004 35.8208 31.147 36.6956 32.2732 36.6956C32.3205 36.6956 32.3679 36.6956 32.4168 36.6907C33.605 36.6123 34.5043 35.5874 34.426 34.3992C33.2606 16.6484 40.9185 15.798 41.3722 15.6756C43.4613 15.124 45.5178 15.8176 45.5178 15.8176L46.9083 12.9761L41.4832 11.53H41.4816Z" fill="#DF8852"/>
<path d="M20.6652 58.7083C22.0851 58.4145 24.7194 58.5663 26.6828 59.0968C27.4532 59.304 27.6327 59.9879 27.3471 60.6342C26.9293 61.5857 25.617 62.893 23.8299 62.8751C21.8713 62.8539 20.1021 61.2903 19.9618 59.8328C19.9063 59.2698 20.1152 58.8226 20.6668 58.7083H20.6652Z" fill="#DF8852"/>
<path d="M19.1387 64.742C21.7305 66.5618 23.4882 63.0886 23.4882 63.0886C23.4882 63.0886 24.9196 68.1645 30.2436 65.3507" stroke="#DF8852" stroke-width="3" stroke-linecap="round" stroke-linejoin="round"/>
</svg>
