<svg width="15" height="15" viewBox="0 0 15 15" fill="none" xmlns="http://www.w3.org/2000/svg">
<path d="M12.1881 6.09286C12.1881 7.43739 11.7516 8.67939 11.0162 9.68706L14.7253 13.3984C15.0916 13.7646 15.0916 14.3592 14.7253 14.7254C14.3591 15.0915 13.7643 15.0915 13.3981 14.7254L9.68895 11.014C8.68109 11.7493 7.43884 12.1857 6.09405 12.1857C2.72767 12.1857 0 9.45858 0 6.09286C0 2.72714 2.72767 0 6.09405 0C9.46042 0 12.1881 2.72714 12.1881 6.09286ZM6.09405 10.311C8.42326 10.311 10.313 8.42162 10.313 6.09286C10.313 3.7641 8.42326 1.87473 6.09405 1.87473C3.76483 1.87473 1.87509 3.7641 1.87509 6.09286C1.87509 8.42162 3.76483 10.311 6.09405 10.311Z" fill="#49291A"/>
</svg>
