<svg width="26" height="30" viewBox="0 0 26 30" fill="none" xmlns="http://www.w3.org/2000/svg">
<path d="M25.0583 9.15753V20.2403C25.0583 20.7952 24.6078 21.2457 24.0529 21.2457H17.2667C17.1956 22.308 16.3135 23.1474 15.2275 23.1474C14.151 23.1474 13.269 22.308 13.1979 21.2457H6.41164C5.85677 21.2457 5.40625 20.7952 5.40625 20.2403V9.15753C5.40625 8.60261 5.85677 8.1521 6.41164 8.1521H6.80523V18.1442C6.80523 19.0927 7.57823 19.8656 8.52669 19.8656H13.544C14.1842 19.8656 14.7723 19.6333 15.2323 19.2539C15.6923 19.6332 16.2803 19.8656 16.9205 19.8656H21.9379C22.8863 19.8656 23.6593 19.0927 23.6593 18.1442V8.1521H24.0529C24.6078 8.1521 25.0583 8.60261 25.0583 9.15753Z" fill="#DF8852" fill-opacity="0.5"/>
<path d="M21.9381 6.29785H16.9208C15.9865 6.29785 15.2325 7.05187 15.2325 7.98609C15.2325 7.05187 14.4737 6.29785 13.5442 6.29785H8.5269C8.10011 6.29785 7.75391 6.64403 7.75391 7.07079V18.1442C7.75391 18.5709 8.10011 18.9171 8.5269 18.9171H13.5442C14.4737 18.9171 15.2325 18.1584 15.2325 17.2289C15.2325 18.1584 15.9865 18.9171 16.9208 18.9171H21.9381C22.3649 18.9171 22.7111 18.5709 22.7111 18.1442V7.07079C22.7111 6.64403 22.3649 6.29785 21.9381 6.29785ZM13.1174 16.6456H9.86422C9.60339 16.6456 9.38999 16.4321 9.38999 16.1714C9.38999 15.9106 9.60339 15.6971 9.86422 15.6971H13.1174C13.383 15.6971 13.5916 15.9106 13.5916 16.1714C13.5916 16.4321 13.383 16.6456 13.1174 16.6456ZM13.1174 14.2697H9.86422C9.60339 14.2697 9.38999 14.0562 9.38999 13.7954C9.38999 13.5347 9.60339 13.3212 9.86422 13.3212H13.1174C13.383 13.3212 13.5916 13.5347 13.5916 13.7954C13.5916 14.0562 13.383 14.2697 13.1174 14.2697ZM13.1174 11.8938H9.86422C9.60339 11.8938 9.38999 11.6803 9.38999 11.4195C9.38999 11.1587 9.60339 10.9453 9.86422 10.9453H13.1174C13.383 10.9453 13.5916 11.1587 13.5916 11.4195C13.5916 11.6803 13.383 11.8938 13.1174 11.8938ZM13.1174 9.51786H9.86422C9.60339 9.51786 9.38999 9.30447 9.38999 9.04363C9.38999 8.78284 9.60339 8.5694 9.86422 8.5694H13.1174C13.383 8.5694 13.5916 8.78284 13.5916 9.04363C13.5916 9.30447 13.383 9.51786 13.1174 9.51786ZM20.596 16.6456H17.3428C17.082 16.6456 16.8686 16.4321 16.8686 16.1714C16.8686 15.9106 17.082 15.6971 17.3428 15.6971H20.596C20.8616 15.6971 21.0702 15.9106 21.0702 16.1714C21.0702 16.4321 20.8616 16.6456 20.596 16.6456ZM20.596 14.2697H17.3428C17.082 14.2697 16.8686 14.0562 16.8686 13.7954C16.8686 13.5347 17.082 13.3212 17.3428 13.3212H20.596C20.8616 13.3212 21.0702 13.5347 21.0702 13.7954C21.0702 14.0562 20.8616 14.2697 20.596 14.2697ZM20.596 11.8938H17.3428C17.082 11.8938 16.8686 11.6803 16.8686 11.4195C16.8686 11.1587 17.082 10.9453 17.3428 10.9453H20.596C20.8616 10.9453 21.0702 11.1587 21.0702 11.4195C21.0702 11.6803 20.8616 11.8938 20.596 11.8938ZM20.596 9.51786H17.3428C17.082 9.51786 16.8686 9.30447 16.8686 9.04363C16.8686 8.78284 17.082 8.5694 17.3428 8.5694H20.596C20.8616 8.5694 21.0702 8.78284 21.0702 9.04363C21.0702 9.30447 20.8616 9.51786 20.596 9.51786Z" fill="#DF8852" fill-opacity="0.5"/>
<path d="M20.9372 5.34937V3.26742C20.9372 1.46536 19.4671 0 17.6697 0H3.26745C1.46535 0 0 1.46536 0 3.26742V26.7325C0 28.5346 1.46535 30 3.26745 30H17.6698C19.4671 30 20.9372 28.5346 20.9372 26.7325V22.1941H18.5186V25.4094H2.41382V4.14953H18.5186V5.34935H20.9372V5.34937ZM8.58353 26.9933H12.3489C12.6145 26.9933 12.8231 27.2068 12.8231 27.4675C12.8231 27.7284 12.6145 27.9418 12.3489 27.9418H8.58353C8.32271 27.9418 8.1093 27.7284 8.1093 27.4675C8.1093 27.2068 8.32271 26.9933 8.58353 26.9933ZM11.334 2.78374H9.59839C9.33757 2.78374 9.12416 2.57506 9.12416 2.30951C9.12416 2.04866 9.33757 1.83528 9.59839 1.83528H11.334C11.5949 1.83528 11.8083 2.04867 11.8083 2.30951C11.8083 2.57506 11.5949 2.78374 11.334 2.78374Z" fill="#DF8852" fill-opacity="0.5"/>
</svg>
