<svg width="30" height="30" viewBox="0 0 30 30" fill="none" xmlns="http://www.w3.org/2000/svg">
<g clip-path="url(#clip0_612_3211)">
<path d="M19.9128 23.175C19.788 22.8688 19.5469 22.6245 19.2423 22.4956C18.9378 22.3667 18.5946 22.3638 18.2878 22.4875C16.1817 23.3311 13.8315 23.3311 11.7253 22.4875C11.5735 22.4251 11.4109 22.3933 11.2467 22.3937C11.0825 22.3942 10.9201 22.427 10.7686 22.4903C10.6171 22.5535 10.4796 22.646 10.3639 22.7624C10.2481 22.8788 10.1565 23.0169 10.0941 23.1687C10.0317 23.3206 9.99985 23.4832 10.0003 23.6474C10.0008 23.8115 10.0336 23.974 10.0969 24.1255C10.1601 24.2769 10.2526 24.4145 10.369 24.5302C10.4854 24.6459 10.6235 24.7376 10.7753 24.8C13.485 25.898 16.5157 25.898 19.2253 24.8C19.5316 24.6752 19.7759 24.4341 19.9047 24.1295C20.0336 23.8249 20.0365 23.4817 19.9128 23.175ZM19.9253 7.1375C21.1047 7.94059 22.0697 9.01989 22.7364 10.2814C23.4031 11.5428 23.7512 12.9482 23.7503 14.375C23.7475 14.7425 23.7266 15.1096 23.6878 15.475C23.6681 15.6392 23.681 15.8056 23.7256 15.9648C23.7702 16.124 23.8457 16.2728 23.9479 16.4028C24.05 16.5328 24.1768 16.6414 24.3209 16.7224C24.465 16.8035 24.6237 16.8553 24.7878 16.875C24.952 16.8947 25.1184 16.8819 25.2776 16.8373C25.4368 16.7926 25.5857 16.7171 25.7157 16.6149C25.8457 16.5128 25.9543 16.3861 26.0353 16.2419C26.1163 16.0978 26.1681 15.9392 26.1878 15.775C26.2414 15.3104 26.2623 14.8426 26.2503 14.375C26.2511 12.5419 25.804 10.7364 24.9478 9.11557C24.0917 7.49472 22.8524 6.10763 21.3378 5.075C21.2025 4.97985 21.0496 4.91252 20.888 4.87691C20.7265 4.84129 20.5595 4.8381 20.3967 4.86753C20.2339 4.89695 20.0785 4.95839 19.9396 5.0483C19.8008 5.13821 19.6811 5.2548 19.5876 5.3913C19.4941 5.5278 19.4287 5.68149 19.3951 5.84348C19.3614 6.00546 19.3603 6.17252 19.3917 6.33495C19.4231 6.49738 19.4865 6.65196 19.5781 6.78972C19.6697 6.92749 19.7877 7.0457 19.9253 7.1375ZM5.22534 16.8625C5.55316 16.8218 5.85156 16.6531 6.05533 16.3931C6.25911 16.1331 6.35168 15.803 6.31284 15.475C6.2949 15.1086 6.2949 14.7414 6.31284 14.375C6.30504 12.9538 6.64356 11.552 7.29912 10.291C7.95468 9.02996 8.90756 7.94759 10.0753 7.1375C10.213 7.0457 10.331 6.92749 10.4226 6.78972C10.5142 6.65196 10.5776 6.49738 10.609 6.33495C10.6404 6.17252 10.6392 6.00546 10.6056 5.84348C10.572 5.68149 10.5065 5.5278 10.413 5.3913C10.3196 5.2548 10.1999 5.13821 10.061 5.0483C9.92216 4.95839 9.76682 4.89695 9.60402 4.86753C9.44121 4.8381 9.27419 4.84129 9.11263 4.87691C8.95107 4.91252 8.79818 4.97985 8.66284 5.075C7.14829 6.10763 5.90902 7.49472 5.05285 9.11557C4.19667 10.7364 3.74954 12.5419 3.75034 14.375C3.7467 14.8431 3.77594 15.311 3.83784 15.775C3.87849 16.1028 4.04725 16.4012 4.30723 16.605C4.56722 16.8088 4.8973 16.9013 5.22534 16.8625ZM19.5878 11.875C19.6353 11.8765 19.6825 11.8671 19.7258 11.8476C19.7692 11.8281 19.8075 11.799 19.8378 11.7625C19.8658 11.7254 19.8857 11.6829 19.8965 11.6378C19.9072 11.5926 19.9085 11.5457 19.9003 11.5C19.6478 10.3766 19.0207 9.37248 18.1221 8.65253C17.2235 7.93259 16.1068 7.53962 14.9553 7.53817C13.8039 7.53671 12.6862 7.92686 11.7858 8.64453C10.8853 9.3622 10.2557 10.3647 10.0003 11.4875C9.97937 11.5303 9.96846 11.5773 9.96846 11.625C9.96846 11.6727 9.97937 11.7197 10.0003 11.7625C10.0619 11.8294 10.1471 11.8698 10.2378 11.875H19.5878ZM11.8753 3.125C11.8753 3.9538 12.2046 4.74866 12.7906 5.33471C13.3767 5.92076 14.1715 6.25 15.0003 6.25C15.8291 6.25 16.624 5.92076 17.21 5.33471C17.7961 4.74866 18.1253 3.9538 18.1253 3.125C18.1253 2.2962 17.7961 1.50134 17.21 0.915291C16.624 0.32924 15.8291 0 15.0003 0C14.1715 0 13.3767 0.32924 12.7906 0.915291C12.2046 1.50134 11.8753 2.2962 11.8753 3.125ZM25.0003 25.625C23.8342 25.6158 22.7005 26.0084 21.7899 26.7369C20.8793 27.4654 20.2473 28.4853 20.0003 29.625C19.9912 29.6699 19.992 29.7163 20.0027 29.7608C20.0135 29.8054 20.0339 29.847 20.0625 29.8828C20.0911 29.9186 20.1273 29.9476 20.1684 29.9679C20.2095 29.9881 20.2545 29.9991 20.3003 30H29.6253C29.7199 29.9954 29.8092 29.9552 29.8753 29.8875C29.8939 29.844 29.9035 29.7973 29.9035 29.75C29.9035 29.7027 29.8939 29.656 29.8753 29.6125C29.6305 28.496 29.016 27.4948 28.1312 26.7711C27.2464 26.0473 26.1432 25.6435 25.0003 25.625ZM21.9128 21.25C21.9128 22.0788 22.2421 22.8737 22.8281 23.4597C23.4142 24.0458 24.209 24.375 25.0378 24.375C25.8666 24.375 26.6615 24.0458 27.2475 23.4597C27.8336 22.8737 28.1628 22.0788 28.1628 21.25C28.1628 20.4212 27.8336 19.6263 27.2475 19.0403C26.6615 18.4542 25.8666 18.125 25.0378 18.125C24.209 18.125 23.4142 18.4542 22.8281 19.0403C22.2421 19.6263 21.9128 20.4212 21.9128 21.25ZM5.00034 25.625C3.83422 25.6158 2.7005 26.0084 1.78988 26.7369C0.879268 27.4654 0.247319 28.4853 0.000337504 29.625C-0.0179159 29.6664 -0.0273438 29.7111 -0.0273438 29.7563C-0.0273437 29.8014 -0.0179159 29.8462 0.000337504 29.8875C0.0406785 29.9462 0.0998423 29.9893 0.168036 30.0098C0.23623 30.0302 0.309366 30.0268 0.375338 30H9.68784C9.73602 30.0014 9.78388 29.9917 9.82767 29.9715C9.87146 29.9513 9.91 29.9213 9.94026 29.8838C9.97052 29.8463 9.99169 29.8023 10.0021 29.7552C10.0125 29.7081 10.0119 29.6593 10.0003 29.6125C9.74872 28.4762 9.11513 27.4605 8.20523 26.7349C7.29532 26.0092 6.16413 25.6175 5.00034 25.625ZM1.96284 21.25C1.96284 22.0788 2.29208 22.8737 2.87813 23.4597C3.46418 24.0458 4.25904 24.375 5.08784 24.375C5.91664 24.375 6.71149 24.0458 7.29755 23.4597C7.8836 22.8737 8.21284 22.0788 8.21284 21.25C8.21284 20.4212 7.8836 19.6263 7.29755 19.0403C6.71149 18.4542 5.91664 18.125 5.08784 18.125C4.25904 18.125 3.46418 18.4542 2.87813 19.0403C2.29208 19.6263 1.96284 20.4212 1.96284 21.25Z" fill="#DF8852" fill-opacity="0.5"/>
</g>
<defs>
<clipPath id="clip0_612_3211">
<rect width="30" height="30" fill="white"/>
</clipPath>
</defs>
</svg>
