<svg width="30" height="30" viewBox="0 0 30 30" fill="none" xmlns="http://www.w3.org/2000/svg">
<path d="M11.325 2.41253C8.9625 2.40003 6.6625 4.67503 7.7125 7.50003H3.75C3.08696 7.50003 2.45107 7.76342 1.98223 8.23226C1.51339 8.7011 1.25 9.33699 1.25 10V12.5C1.25 12.8315 1.3817 13.1495 1.61612 13.3839C1.85054 13.6183 2.16848 13.75 2.5 13.75H13.75V10H16.25V13.75H27.5C27.8315 13.75 28.1495 13.6183 28.3839 13.3839C28.6183 13.1495 28.75 12.8315 28.75 12.5V10C28.75 9.33699 28.4866 8.7011 28.0178 8.23226C27.5489 7.76342 26.913 7.50003 26.25 7.50003H22.2875C23.75 3.41253 18.25 0.525027 15.7125 4.05003L15 5.00003L14.2875 4.02503C13.5 2.91253 12.4125 2.42503 11.325 2.41253ZM11.25 5.00003C12.3625 5.00003 12.925 6.35003 12.1375 7.13753C11.35 7.92503 10 7.36253 10 6.25003C10 5.91851 10.1317 5.60056 10.3661 5.36614C10.6005 5.13172 10.9185 5.00003 11.25 5.00003ZM18.75 5.00003C19.8625 5.00003 20.425 6.35003 19.6375 7.13753C18.85 7.92503 17.5 7.36253 17.5 6.25003C17.5 5.91851 17.6317 5.60056 17.8661 5.36614C18.1005 5.13172 18.4185 5.00003 18.75 5.00003ZM2.5 15V25C2.5 25.6631 2.76339 26.299 3.23223 26.7678C3.70107 27.2366 4.33696 27.5 5 27.5H25C25.663 27.5 26.2989 27.2366 26.7678 26.7678C27.2366 26.299 27.5 25.6631 27.5 25V15H16.25V25H13.75V15H2.5Z" fill="#DF8852" fill-opacity="0.5"/>
</svg>
