<svg width="30" height="22" viewBox="0 0 30 22" fill="none" xmlns="http://www.w3.org/2000/svg">
<path d="M1.34032 16.7295C1.34032 17.2331 1.06687 17.661 0.685547 17.8184L0.697831 17.8799H3.78077C3.82803 17.8826 3.87529 17.884 3.92329 17.884C5.40395 17.884 6.5944 16.6374 6.50134 15.1356C6.42084 13.8496 5.37442 12.8024 4.08847 12.7228C2.58637 12.6294 1.34028 13.8193 1.34028 15.3007L1.34077 15.3495H1.34028V16.7295H1.34032Z" fill="#DF8852" fill-opacity="0.5"/>
<path d="M2.42812 18.1279C1.0873 18.1279 0 19.215 0 20.556V21.7342H7.84718V20.556C7.84718 19.215 6.76012 18.1279 5.41906 18.1279H2.42812Z" fill="#DF8852" fill-opacity="0.5"/>
<path d="M25.6923 12.0004V1.38259C25.6923 0.620483 25.0975 0 24.3664 0H5.45281C4.72222 0 4.12695 0.620442 4.12695 1.38259V12.1481C4.43124 12.1718 4.71482 12.2252 4.97428 12.31V1.38259C4.97428 1.08706 5.18871 0.84655 5.45281 0.84655H24.3664C24.631 0.84655 24.8454 1.08706 24.8454 1.38259V12.2639C25.1015 12.1433 25.385 12.0548 25.6923 12.0004Z" fill="#DF8852" fill-opacity="0.5"/>
<path d="M7.88477 15.7072C7.88477 16.7683 8.74486 17.6287 9.80532 17.6287C10.8673 17.6287 11.7281 16.7683 11.7281 15.7072C11.7281 14.6457 10.8673 13.7849 9.80532 13.7849C8.74486 13.785 7.88477 14.6457 7.88477 15.7072Z" fill="#DF8852" fill-opacity="0.5"/>
<path d="M12.3887 15.2541C12.3887 16.6908 13.554 17.8558 14.9906 17.8558C16.4279 17.8558 17.593 16.6908 17.593 15.2541C17.593 13.8171 16.4279 12.652 14.9906 12.652C13.554 12.652 12.3887 13.8171 12.3887 15.2541Z" fill="#DF8852" fill-opacity="0.5"/>
<path d="M13.483 18.1016C12.1321 18.1016 11.0371 19.1964 11.0371 20.5475V21.7342H18.9414V20.5475C18.9414 19.1964 17.8469 18.1016 16.495 18.1016H13.483Z" fill="#DF8852" fill-opacity="0.5"/>
<path d="M26.0492 12.652C24.6121 12.652 23.4473 13.8171 23.4473 15.2541C23.4473 16.6908 24.6121 17.8558 26.0492 17.8558C27.4863 17.8558 28.6514 16.6908 28.6514 15.2541C28.6514 13.8171 27.4863 12.652 26.0492 12.652Z" fill="#DF8852" fill-opacity="0.5"/>
<path d="M24.542 18.1016C23.1911 18.1016 22.0957 19.1964 22.0957 20.5475V21.7342H29.9995V20.5475C29.9995 19.1964 28.9051 18.1016 27.5534 18.1016H24.542Z" fill="#DF8852" fill-opacity="0.5"/>
<path d="M19.0623 17.81C18.6434 17.81 18.2577 17.9538 17.9512 18.1937C18.7261 18.6738 19.2475 19.5217 19.2662 20.4934H21.8081C21.8238 19.708 22.1709 19.0046 22.7161 18.5145C22.3855 18.0866 21.8691 17.8099 21.2869 17.8099L19.0623 17.81Z" fill="#DF8852" fill-opacity="0.5"/>
<path d="M7.26367 18.5147C7.80818 19.0048 8.15602 19.7082 8.17152 20.4936H10.7203C10.739 19.5235 11.2589 18.6761 12.0308 18.1961C11.7236 17.9551 11.3382 17.8102 10.9172 17.8102H8.69215C8.11047 17.8101 7.59354 18.0868 7.26367 18.5147Z" fill="#DF8852" fill-opacity="0.5"/>
<path d="M20.0335 13.7924C19.0747 13.852 18.2939 14.6321 18.2343 15.5916C18.1644 16.7113 19.0521 17.6408 20.1559 17.6408L20.2622 17.6378H22.5611L22.57 17.5917C22.2857 17.4744 22.0821 17.1555 22.0821 16.7802V15.751H22.0811L22.0821 15.7147C22.0821 14.6101 21.1528 13.7228 20.0335 13.7924Z" fill="#DF8852" fill-opacity="0.5"/>
</svg>
