<svg width="69" height="63" viewBox="0 0 69 63" fill="none" xmlns="http://www.w3.org/2000/svg">
<path d="M25.2791 0.000128737C19.3514 -0.0312613 13.5805 5.68173 16.215 12.7759H6.27273C4.6091 12.7759 3.0136 13.4373 1.83724 14.6147C0.660875 15.792 0 17.3889 0 19.0539V25.3319C0 26.1644 0.330437 26.9628 0.91862 27.5515C1.5068 28.1402 2.30455 28.4709 3.13636 28.4709H31.3636V19.0539H37.6364V28.4709H65.8636C66.6955 28.4709 67.4932 28.1402 68.0814 27.5515C68.6696 26.9628 69 26.1644 69 25.3319V19.0539C69 17.3889 68.3391 15.792 67.1628 14.6147C65.9864 13.4373 64.3909 12.7759 62.7273 12.7759H52.785C56.4545 2.51133 42.6545 -4.73977 36.2877 4.11223L34.5 6.49787L32.7123 4.04945C30.7364 1.25573 28.0077 0.0315188 25.2791 0.000128737ZM25.0909 6.49787C27.8823 6.49787 29.2936 9.888 27.3177 11.8656C25.3418 13.8431 21.9545 12.4306 21.9545 9.63688C21.9545 8.80436 22.285 8.00595 22.8732 7.41727C23.4613 6.82859 24.2591 6.49787 25.0909 6.49787ZM43.9091 6.49787C46.7005 6.49787 48.1118 9.888 46.1359 11.8656C44.16 13.8431 40.7727 12.4306 40.7727 9.63688C40.7727 8.80436 41.1032 8.00595 41.6913 7.41727C42.2795 6.82859 43.0773 6.49787 43.9091 6.49787ZM3.13636 31.6099V56.722C3.13636 58.387 3.79724 59.9839 4.9736 61.1612C6.14997 62.3386 7.74546 63 9.40909 63H59.5909C61.2545 63 62.85 62.3386 64.0264 61.1612C65.2028 59.9839 65.8636 58.387 65.8636 56.722V31.6099H37.6364V56.722H31.3636V31.6099H3.13636Z" fill="#DF8852" fill-opacity="0.5"/>
</svg>
