<svg width="69" height="69" viewBox="0 0 69 69" fill="none" xmlns="http://www.w3.org/2000/svg">
<g clip-path="url(#clip0_612_3321)">
<path d="M54.625 53.4463C53.8625 53.4463 53.1312 53.7491 52.5921 54.2883C52.0529 54.8275 51.75 55.5588 51.75 56.3213V62.5312C51.75 62.7219 51.6743 62.9047 51.5395 63.0395C51.4047 63.1743 51.2219 63.25 51.0312 63.25H6.46875C6.28768 63.2506 6.11307 63.1828 5.97981 63.0602C5.84656 62.9376 5.76448 62.7692 5.75 62.5888V13.7137C5.75 13.5231 5.82573 13.3403 5.96052 13.2055C6.09531 13.0707 6.27813 12.995 6.46875 12.995H10.0625C10.825 12.995 11.5563 12.6921 12.0954 12.1529C12.6346 11.6138 12.9375 10.8825 12.9375 10.12C12.9375 9.3575 12.6346 8.62623 12.0954 8.08707C11.5563 7.5479 10.825 7.245 10.0625 7.245H5.75C4.22501 7.245 2.76247 7.8508 1.68414 8.92914C0.605802 10.0075 0 11.47 0 12.995L0 63.25C0 64.775 0.605802 66.2375 1.68414 67.3159C2.76247 68.3942 4.22501 69 5.75 69H51.75C53.275 69 54.7375 68.3942 55.8159 67.3159C56.8942 66.2375 57.5 64.775 57.5 63.25V56.3213C57.5 55.5588 57.1971 54.8275 56.6579 54.2883C56.1188 53.7491 55.3875 53.4463 54.625 53.4463ZM47.4375 12.9375H51.0312C51.2219 12.9375 51.4047 13.0132 51.5395 13.148C51.6743 13.2828 51.75 13.4656 51.75 13.6562V15.8125C51.75 16.575 52.0529 17.3063 52.5921 17.8454C53.1312 18.3846 53.8625 18.6875 54.625 18.6875C55.3875 18.6875 56.1188 18.3846 56.6579 17.8454C57.1971 17.3063 57.5 16.575 57.5 15.8125V12.9375C57.5 11.4125 56.8942 9.94997 55.8159 8.87164C54.7375 7.7933 53.275 7.1875 51.75 7.1875H47.4375C46.675 7.1875 45.9437 7.4904 45.4046 8.02957C44.8654 8.56873 44.5625 9.3 44.5625 10.0625C44.5625 10.825 44.8654 11.5563 45.4046 12.0954C45.9437 12.6346 46.675 12.9375 47.4375 12.9375Z" fill="#DF8852" fill-opacity="0.5"/>
<path d="M20.125 15.8125H37.375C38.5187 15.8125 39.6156 15.3581 40.4244 14.5494C41.2331 13.7406 41.6875 12.6437 41.6875 11.5V10.0625C41.6875 8.91875 41.2331 7.82185 40.4244 7.0131C39.6156 6.20435 38.5187 5.75 37.375 5.75H34.5C34.5 4.22501 33.8942 2.76247 32.8159 1.68414C31.7375 0.605802 30.275 0 28.75 0C27.225 0 25.7625 0.605802 24.6841 1.68414C23.6058 2.76247 23 4.22501 23 5.75H20.125C18.9813 5.75 17.8844 6.20435 17.0756 7.0131C16.2669 7.82185 15.8125 8.91875 15.8125 10.0625V11.5C15.8125 12.6437 16.2669 13.7406 17.0756 14.5494C17.8844 15.3581 18.9813 15.8125 20.125 15.8125ZM11.5 28.75C11.5 29.5125 11.8029 30.2438 12.3421 30.7829C12.8812 31.3221 13.6125 31.625 14.375 31.625H37.375C38.1375 31.625 38.8688 31.3221 39.4079 30.7829C39.9471 30.2438 40.25 29.5125 40.25 28.75C40.25 27.9875 39.9471 27.2562 39.4079 26.7171C38.8688 26.1779 38.1375 25.875 37.375 25.875H14.375C13.6125 25.875 12.8812 26.1779 12.3421 26.7171C11.8029 27.2562 11.5 27.9875 11.5 28.75ZM14.375 40.25C13.6125 40.25 12.8812 40.5529 12.3421 41.0921C11.8029 41.6312 11.5 42.3625 11.5 43.125C11.5 43.8875 11.8029 44.6188 12.3421 45.1579C12.8812 45.6971 13.6125 46 14.375 46H27.3125C28.075 46 28.8063 45.6971 29.3454 45.1579C29.8846 44.6188 30.1875 43.8875 30.1875 43.125C30.1875 42.3625 29.8846 41.6312 29.3454 41.0921C28.8063 40.5529 28.075 40.25 27.3125 40.25H14.375ZM67.3037 23.69C66.2264 22.6191 64.7691 22.0179 63.25 22.0179C61.7309 22.0179 60.2736 22.6191 59.1963 23.69L36.57 46.3163C36.4288 46.453 36.3207 46.6202 36.2537 46.805L32.1712 56.9537C32.0697 57.2156 32.0456 57.5012 32.1016 57.7764C32.1577 58.0516 32.2916 58.3049 32.4875 58.5063C32.6847 58.7086 32.9382 58.8469 33.2151 58.9033C33.4919 58.9597 33.7794 58.9315 34.04 58.8225L44.2175 54.7687C44.3972 54.6918 44.5624 54.5848 44.7063 54.4525L67.3037 31.8262C67.8384 31.2922 68.2625 30.6581 68.5518 29.96C68.8412 29.262 68.9901 28.5138 68.9901 27.7581C68.9901 27.0025 68.8412 26.2543 68.5518 25.5562C68.2625 24.8582 67.8384 24.224 67.3037 23.69Z" fill="#DF8852" fill-opacity="0.5"/>
</g>
<defs>
<clipPath id="clip0_612_3321">
<rect width="69" height="69" fill="white"/>
</clipPath>
</defs>
</svg>
