<svg width="454" height="226" viewBox="0 0 454 226" fill="none" xmlns="http://www.w3.org/2000/svg">
<path d="M79.0908 220.241C73.3716 203.792 63.0509 193.016 48.4083 188.22C42.1041 186.153 36.2809 185.724 32.5113 185.724C31.1075 185.724 29.9377 185.783 29.0603 185.848C31.348 159.773 14.1382 143.155 6.50173 137.137C4.91593 135.889 4.32451 133.783 5.03942 131.911L7.76905 124.723L74.2944 126.309C76.0167 126.64 95.8456 131.125 103.469 161.775L104.113 164.349L106.751 164.563C113.504 165.102 120.042 166.051 125.163 167.241C129.934 168.346 134.698 170.276 139.325 172.986L141.236 174.104L143.12 172.947C144.849 171.881 146.942 170.958 149.347 170.198L158.744 167.221L149.698 163.302C136.069 157.401 127.789 147.899 124.864 144.091C122.44 140.939 122.902 136.324 125.885 133.809C130.044 130.306 131.071 125.809 128.848 120.791C123.63 108.976 122.187 82.1927 140.534 60.622C152.102 47.0193 165.796 38.005 181.238 33.826L182.973 33.3581L183.675 31.7073C191.006 14.3415 199.878 4.78125 208.645 4.78125C209.867 4.78125 211.108 4.96323 212.35 5.32719C219.401 7.39392 223.184 12.2943 223.905 20.3142L224.477 26.6444L229.689 23.0049C235.526 18.9299 241.102 16.6227 246.275 16.1483C246.945 16.0833 247.614 16.0573 248.27 16.0573C253.652 16.0573 258.617 18.202 263.017 22.433C270.335 29.4715 271.056 40.0912 265.162 53.9929L264.232 56.1896L265.851 57.9379C273.429 66.1203 278.745 75.8105 281.657 86.7486C285.79 102.301 284.289 112.232 282.293 117.834L279.564 125.497L287.122 122.487C291.009 120.941 295.038 119.745 299.107 118.926C302.161 118.315 305.301 117.925 308.433 117.769L313.125 117.542L311.787 113.038C310.168 107.617 306.561 93.2543 307.952 77.0324C309.596 57.7624 318.91 31.9867 353.921 18.657C362.701 15.3099 371.566 13.6136 380.255 13.6136C392.357 13.6136 404.341 16.9802 414.922 23.3558C424.625 29.2051 432.957 37.3745 439.021 46.9868C445.871 57.8534 449.432 70.1173 449.042 81.5103C448.62 93.8782 443.661 104.927 434.712 113.46C427.14 120.681 417.58 124.34 406.31 124.34C403.6 124.34 400.838 124.119 398.102 123.683L390.193 122.422L394.384 129.253C399.545 137.663 401.573 145.709 400.409 153.17C400.182 154.619 399.824 156.075 399.35 157.498L397.797 162.145L402.69 162.347C419.92 163.062 431.033 172.791 434.062 181.526C436.116 187.434 434.536 192.841 429.74 196.363C428.258 197.449 426.178 198.001 423.553 198.001C421.44 198.001 418.977 197.644 416.228 196.942L412.316 195.934L411.679 199.925C411.094 203.584 408.605 206.788 404.484 209.193C402.125 210.571 399.298 211.266 396.094 211.266C385.968 211.266 374.893 204.481 371.735 202.401L370.091 201.316L368.277 202.083C357.398 206.671 347.097 208.998 337.647 208.998C330.608 208.998 324.057 207.678 318.175 205.066L316.921 204.513L315.608 204.91C303.5 208.595 291.529 210.46 280.038 210.46C271.102 210.46 262.53 209.349 254.555 207.159C243.396 204.091 236.331 199.782 233.81 198.066L232.139 196.929L230.287 197.728C222.937 200.893 215.294 202.499 207.573 202.499C203.166 202.499 198.714 201.979 194.34 200.945C182.811 198.229 174.648 192.86 171.678 190.677L170.189 189.585L168.428 190.118C167.596 190.371 166.738 190.612 165.887 190.833L160.74 192.158L163.788 196.513C164.438 197.442 165.062 198.372 165.647 199.269C166.154 200.042 166.206 200.945 165.803 201.764L165.679 201.966L164.711 203.558L165.302 204.994L164.555 217.037L79.1168 220.254L79.0908 220.241Z" fill="#FFEFE1"/>
<path d="M209.419 41.612C209.419 41.612 240.186 -1.36044 263.914 21.4581C285.186 41.9174 246.809 84.0905 246.809 84.0905" stroke="#47291A" stroke-width="7" stroke-linecap="round" stroke-linejoin="round"/>
<path d="M253.027 32.5005C253.027 32.5005 231.151 40.9299 231.723 60.1414" stroke="#47291A" stroke-width="7" stroke-linecap="round" stroke-linejoin="round"/>
<path d="M225.218 24.9612C225.699 16.1419 223.294 7.17305 212.805 4.09895C197.974 -0.242491 187.179 20.3923 182.239 32.5003" stroke="#47291A" stroke-width="7" stroke-linecap="round" stroke-linejoin="round"/>
<path d="M167.694 138.469C173.354 138.469 177.943 133.88 177.943 128.22C177.943 122.559 173.354 117.971 167.694 117.971C162.033 117.971 157.444 122.559 157.444 128.22C157.444 133.88 162.033 138.469 167.694 138.469Z" fill="#48291A"/>
<path d="M161.803 133.465C162.744 133.465 163.506 132.702 163.506 131.762C163.506 130.821 162.744 130.059 161.803 130.059C160.863 130.059 160.101 130.821 160.101 131.762C160.101 132.702 160.863 133.465 161.803 133.465Z" fill="white"/>
<path d="M218.224 31.3628C185.351 25.5266 158.887 37.3745 139.864 59.7381C120.802 82.1537 123.122 109.97 128.016 121.051C130.466 126.588 128.211 130.39 125.344 132.802C121.939 135.668 121.451 141.043 124.162 144.572C134.463 157.986 155.982 173.467 187.015 168.19C218.958 162.262 232.873 151.448 232.873 151.448" stroke="#47291A" stroke-width="7" stroke-linecap="round" stroke-linejoin="round"/>
<path d="M146.908 92.4678C146.817 94.983 148.78 97.1017 151.302 97.1927H151.471C153.914 97.1927 155.936 95.2559 156.027 92.7993C156.196 88.1979 157.645 72.1059 169.187 58.2627C179.209 46.2393 193.748 39.5322 212.452 38.2583C214.012 36.3801 216.131 33.9819 218.653 31.4472L218.224 31.3562C213.551 30.5243 209.014 30.0564 204.608 29.9199C161.07 36.2761 147.695 71.0661 146.908 92.4613V92.4678Z" fill="#48291A"/>
<path d="M132.208 90.0374H132.377C134.821 90.0374 136.842 88.1006 136.933 85.6439C137.225 77.6435 141.703 65.1911 153.389 54.2075C162.176 45.9536 177.93 35.9904 203.12 35.4055C205.642 35.347 207.631 33.2607 207.572 30.7391C207.572 30.4856 207.533 30.2386 207.488 29.9982C179.996 28.5553 157.542 40.0848 140.832 59.7318C134.158 67.5763 130.109 76.0902 127.867 84.3116C127.847 84.6431 127.828 84.9745 127.815 85.306C127.724 87.8212 129.686 89.9399 132.208 90.0309V90.0374Z" fill="#48291A"/>
<path d="M295.773 185.152C295.773 185.152 314.666 226.546 370.136 202.33C370.136 202.33 391.687 217.791 405.173 209.927C425.704 197.949 403.113 170.724 371.598 172.187C371.598 172.187 369.675 142.713 340.942 124.788C310.799 105.98 279.759 124.658 279.759 124.658C279.759 124.658 290.32 114.351 282.852 86.2742C279.453 73.5034 273.195 63.6247 265.87 56.0142" stroke="#47291A" stroke-width="7" stroke-linecap="round" stroke-linejoin="round"/>
<path d="M158.179 167.13C158.179 167.13 131.65 169.36 137.414 185.802C140.892 195.72 158.283 194.433 170.144 190.566C170.144 190.566 208.015 221.736 249.232 186.959" stroke="#47291A" stroke-width="7" stroke-linecap="round" stroke-linejoin="round"/>
<path d="M232.204 197.956C232.204 197.956 263.14 222.249 316.999 205.469" stroke="#47291A" stroke-width="7" stroke-linecap="round" stroke-linejoin="round"/>
<path d="M311.961 116.398C311.961 116.398 284.899 43.6398 353.692 17.4482C422.778 -8.86036 477.735 73.9129 435.614 114.052C417.065 131.729 391.595 123.06 391.595 123.06" stroke="#47291A" stroke-width="7" stroke-linecap="round" stroke-linejoin="round"/>
<path d="M387.664 173.967C387.664 173.967 419.829 154.671 387.664 118.068C362.123 88.9973 389.588 75.895 398.706 83.85C406.778 90.8886 404.029 99.8249 399.35 100.293" stroke="#47291A" stroke-width="7" stroke-linecap="round" stroke-linejoin="round"/>
<path d="M413.038 196.896C419.498 198.976 426.445 200.042 430.54 197.039C445.657 185.932 428.817 160.014 399.155 161.047" stroke="#47291A" stroke-width="7" stroke-linecap="round" stroke-linejoin="round"/>
<path d="M436.973 54.7468C434.646 51.5818 413.089 23.8563 377.909 31.5383C349.819 37.667 338.569 56.1182 334.072 70.5203C330.244 82.7777 329.705 97.5178 332.551 112.017C333.24 115.52 334.111 118.907 335.125 122.111C336.724 122.904 338.322 123.794 339.921 124.788C347.025 129.221 355.448 136.311 359.653 141.537C358.06 138.235 355.922 132.789 354.882 130.222C351.087 120.843 338.959 98.4797 346.479 74.3938C351.522 58.2369 363.026 48.0917 380.677 44.2442C408.656 38.1415 425.84 61.5385 426.542 62.5198C426.665 62.6953 426.782 62.8448 426.925 63.0073C427.517 63.7027 444.116 79.0537 437.045 104.335C436.336 106.87 435.641 111.004 432.326 116.866C439.833 108.982 447.872 95.0611 448.971 85.2864C447.235 67.8751 438.552 56.6771 436.967 54.7598V54.7468H436.973Z" fill="#48291A"/>
<path d="M367.984 157.544C364.195 147.581 356.5 134.492 340.948 124.788C310.805 105.98 279.817 121.422 277.984 122.813C275.495 124.691 278.855 130.904 282.247 129.526C282.325 129.494 289.845 125.445 300.536 123.346C314.542 120.596 326.643 122.598 338.03 129.708C345.296 134.238 351.801 138.846 356.5 145.54C342.501 134.271 326.552 131.587 313.736 131.86C293.218 132.295 276.671 140.139 275.976 140.471C273.707 141.563 272.752 144.279 273.837 146.554C274.923 148.822 277.646 149.784 279.921 148.699C280.077 148.627 295.61 141.303 314.204 140.978C338.387 140.549 356.325 151.747 367.523 174.254C368.498 174.929 371.689 174.819 371.962 174.78C371.962 174.78 371.188 165.993 367.978 157.551L367.984 157.544Z" fill="#48291A"/>
<path d="M353.323 17.5264C296.533 39.1491 306.1 96.9656 311.169 116.483C313.561 116.483 324.382 118.081 326.904 118.413C322.673 111.966 319.852 93.2286 320.879 77.0652C322.627 49.5932 337.881 32.5004 357.333 25.4359C373.542 19.5476 393.728 14.7837 418.197 28.471C422.838 31.0641 431.774 39.0516 431.774 39.0516C421.252 17.0324 386.053 5.06099 353.316 17.5264H353.323Z" fill="#48291A"/>
<path d="M141.807 172.557C136.978 169.522 131.577 167.059 125.65 165.687C103.3 160.501 45.1127 157.901 27.6494 187.258C27.6494 187.258 42.7925 174.214 59.7748 182.494C71.0833 188.012 75.8017 196.13 77.7579 201.608C79.0058 205.092 82.3593 207.367 86.0574 207.237L163.82 204.383C166.881 204.273 168.636 200.867 166.965 198.307C165.893 196.656 164.58 194.745 163.027 192.685" stroke="#47291A" stroke-width="7" stroke-linecap="round" stroke-linejoin="round"/>
<path d="M27.65 187.252C46.0686 156.29 6.96973 123.112 6.96973 123.112L74.6064 124.724C74.6064 124.724 97.0805 128.656 105.113 161.678" stroke="#47291A" stroke-width="7" stroke-linecap="round" stroke-linejoin="round"/>
<path d="M6.96968 123.112L3.88906 131.236C2.95969 133.686 3.73959 136.442 5.79982 138.066C13.4883 144.124 30.7891 160.911 27.65 187.252C27.65 187.252 64.9162 181.351 78.2589 221.509" stroke="#47291A" stroke-width="7" stroke-linecap="round" stroke-linejoin="round"/>
<path d="M79.1167 207.484L78.2588 221.509L166.023 218.208L166.868 204.546" stroke="#47291A" stroke-width="7" stroke-linecap="round" stroke-linejoin="round"/>
<path d="M130.362 151.942C134.327 149.401 135.737 145.293 136.231 142.356C136.588 140.23 135.425 138.144 133.436 137.325C126.69 134.563 122.427 137.026 122.427 137.026L130.362 151.935V151.942Z" fill="#48291A"/>
</svg>
