<svg width="80" height="75" viewBox="0 0 80 75" fill="none" xmlns="http://www.w3.org/2000/svg">
<path d="M25.9614 73.7764C19.1839 71.4913 14.4043 66.4204 12.5007 59.4992C11.7376 56.7382 11.4176 53.7145 11.5489 50.375C-1.56728 41.4394 -0.857516 31.3839 1.05842 25.7017C3.34769 18.9077 8.76317 14.2266 15.91 12.8522C18.5069 12.3558 21.4362 12.245 24.7594 12.5322C35.537 -2.53268 47.968 -0.583926 53.285 1.20893C58.3272 2.90742 68.6002 8.57727 67.2381 26.313C69.7366 27.8187 71.8002 29.3982 73.4618 31.072C78.7747 36.4219 80.4814 43.4538 78.1511 50.3709C75.8536 57.1936 70.5736 61.8952 63.2873 63.6101C60.2636 64.3199 56.8584 64.5373 53.0019 64.2583C42.8028 77.4442 31.0323 75.4831 25.9614 73.7723V73.7764Z" fill="#48291A"/>
<path d="M18.1412 24.4709C21.1239 23.9006 25.3373 24.2371 30.7897 25.4884C36.2831 14.4235 42.5232 10.0665 49.5059 12.4215C55.5696 14.4646 57.1081 21.3324 54.1214 33.0249C59.2825 35.1337 62.9339 37.2629 65.0713 39.4127C67.2088 41.5625 67.8324 43.9585 66.9462 46.5965C65.9698 49.497 63.8447 51.3309 60.5748 52.1022C57.305 52.8694 52.825 52.6643 47.1305 51.4786C42.1253 61.0952 36.3282 64.7917 29.7394 62.568C26.7076 61.5465 24.7629 59.4787 23.9054 56.3607C23.0439 53.2468 23.1875 49.1278 24.328 44.0077C14.5555 39.4661 10.5349 34.625 12.2704 29.4843C13.2058 26.7151 15.1586 25.0453 18.1453 24.4709H18.1412Z" fill="#FFEFE1"/>
</svg>
