<svg width="17" height="18" viewBox="0 0 17 18" fill="none" xmlns="http://www.w3.org/2000/svg">
<path d="M0.843984 3.83447C-0.11315 7.93011 -1.46482 14.3548 4.51289 17.1232C10.9935 18.2291 13.4613 12.1613 14.9551 8.23196" fill="#48291A"/>
<path d="M5.37801 6.65942C1.98333 5.23409 0.0910044 3.43565 0.419564 2.36238C1.10934 0.107911 4.59678 -0.301393 8.56563 0.714631C8.91771 0.167794 9.50624 -0.119773 10.0445 0.0473709C10.5886 0.216489 10.9158 0.79886 10.893 1.45888C14.5633 2.87895 17.0487 5.12683 16.3792 7.31681C15.9847 8.60592 12.362 8.94285 7.59693 7.46356C6.80068 7.21613 6.0593 6.94567 5.37801 6.65942Z" fill="#48291A"/>
</svg>
